<svg width="2774" height="1205" viewBox="0 0 2774 1205" fill="none" xmlns="http://www.w3.org/2000/svg">
<g clip-path="url(#clip0_2028_283)">
<path d="M230.701 172.424C235.1 175.716 238.436 179.309 241.699 183.735C242.126 184.304 242.554 184.874 242.995 185.461C243.844 186.592 244.69 187.725 245.533 188.86C246.555 190.23 247.596 191.587 248.639 192.94C249.173 193.635 249.708 194.33 250.259 195.045C250.714 195.636 251.169 196.226 251.638 196.834C252.696 198.42 252.696 198.42 253.696 201.419C254.356 201.419 255.016 201.419 255.696 201.419C256.809 202.993 256.809 202.993 258.008 205.106C260.187 208.754 262.643 211.444 265.694 214.417C266.292 215.325 266.89 216.232 267.506 217.167C271.058 222.444 275.46 226.994 279.765 231.664C280.4 232.366 281.036 233.067 281.69 233.789C282.268 234.415 282.845 235.042 283.44 235.687C284.69 237.413 284.69 237.413 284.69 240.413C285.25 240.648 285.81 240.883 286.388 241.124C289.251 242.728 291.201 244.694 293.513 247.026C293.979 247.493 294.444 247.96 294.924 248.441C296.459 249.982 297.987 251.53 299.515 253.079C300.588 254.158 301.661 255.237 302.735 256.315C305.563 259.157 308.386 262.004 311.207 264.853C315.706 269.395 320.212 273.931 324.721 278.463C326.285 280.038 327.845 281.615 329.406 283.193C334.654 288.486 339.992 293.581 345.677 298.403C347.857 300.325 350.02 302.265 352.175 304.215C352.712 304.691 353.248 305.167 353.8 305.658C355.13 306.864 356.408 308.128 357.674 309.401C357.674 310.061 357.674 310.721 357.674 311.401C358.231 311.484 358.788 311.566 359.361 311.651C362.948 312.814 365.458 315.183 368.094 317.826C369.795 319.523 371.556 321.122 373.358 322.712C374.292 323.541 374.292 323.541 375.245 324.387C377.937 326.62 380.715 328.706 383.521 330.794C386.319 332.884 389.087 335.012 391.856 337.141C401.164 344.292 410.501 351.318 420.284 357.812C422.547 359.318 424.802 360.835 427.054 362.357C435.44 368.009 443.855 373.402 452.654 378.39C457.842 381.438 462.963 384.574 468.026 387.826C478.799 394.708 489.997 400.852 501.185 407.026C503.709 408.421 506.231 409.823 508.752 411.224C517.435 416.04 526.133 420.736 535.082 425.042C537.636 426.382 537.636 426.382 539.636 428.382C541.074 429.012 542.537 429.588 544.01 430.131C550.092 432.493 555.829 435.408 561.631 438.38C568.699 441.993 575.711 445.515 583.134 448.351C586.046 449.551 588.819 450.946 591.625 452.378C596.01 454.612 600.398 456.546 604.989 458.31C608.111 459.575 611.137 461 614.183 462.438C618.532 464.474 622.797 466.182 627.379 467.598C630.031 468.519 632.514 469.678 635.053 470.874C639.266 472.838 643.376 474.257 647.843 475.503C651.203 476.559 654.424 477.897 657.673 479.248C663.77 481.764 669.917 483.777 676.269 485.547C680.259 486.661 684.175 487.898 688.093 489.246C695.663 491.792 703.365 493.775 711.1 495.745C711.859 495.94 712.618 496.135 713.4 496.335C726.044 499.573 738.734 502.446 751.517 505.091C757.85 506.404 764.122 507.909 770.388 509.509C774.066 510.347 777.765 510.793 781.507 511.258C790.677 512.435 799.641 514.371 808.669 516.335C816.926 518.122 825.094 519.663 833.491 520.629C838.472 521.207 843.41 521.946 848.356 522.768C849.102 522.892 849.848 523.015 850.617 523.143C852.158 523.398 853.699 523.654 855.24 523.909C871.641 526.61 887.975 528.683 904.549 530.025C907.981 530.308 911.406 530.643 914.832 530.99C959.907 535.51 1005.41 534.207 1050.52 530.823C1055.95 530.429 1061.32 530.242 1066.77 530.409C1068.55 530.565 1068.55 530.565 1069.52 529.365C1072.2 529.208 1074.86 529.101 1077.53 529.013C1089.58 528.493 1101.41 526.741 1113.33 524.99C1116.53 524.529 1119.72 524.07 1122.92 523.611C1125.03 523.308 1127.14 523.003 1129.25 522.695C1134.32 521.956 1139.4 521.242 1144.49 520.587C1154.72 519.268 1164.57 517.641 1174.56 515.055C1186.02 512.227 1197.46 510.142 1209.12 508.368C1223.91 506.108 1238.21 503.026 1252.67 499.119C1255.78 498.292 1258.9 497.547 1262.03 496.816C1270.72 494.769 1279.11 491.919 1287.55 489.035C1291.52 487.681 1295.51 486.434 1299.54 485.247C1304.72 483.683 1309.63 481.718 1314.6 479.58C1317.22 478.478 1319.85 477.5 1322.53 476.561C1332.93 472.847 1343.15 468.427 1353.15 463.751C1358.24 461.394 1363.45 459.441 1368.72 457.519C1369.36 457.284 1370 457.049 1370.66 456.806C1371.3 456.575 1371.93 456.344 1372.59 456.106C1374.43 455.387 1376.23 454.545 1378.03 453.702C1384.74 451.11 1392.05 452.032 1398.68 454.651C1400.68 455.671 1402.67 456.73 1404.64 457.826C1407.29 459.285 1409.88 460.423 1412.7 461.501C1415.65 462.637 1418.46 463.846 1421.26 465.313C1425.62 467.554 1430.16 469.226 1434.74 470.949C1438.16 472.265 1441.54 473.651 1444.91 475.068C1450.88 477.572 1456.75 479.915 1463 481.63C1466.01 482.545 1468.89 483.704 1471.81 484.872C1476.9 486.864 1481.89 488.326 1487.2 489.555C1492.31 490.844 1497.28 492.531 1502.28 494.187C1506.26 495.409 1510.29 496.094 1514.39 496.801C1518.88 497.642 1523.3 498.749 1527.74 499.832C1541.96 503.294 1556.12 505.892 1570.61 507.951C1576.92 508.889 1583.17 510.121 1589.41 511.368C1590.16 511.513 1590.9 511.659 1591.67 511.809C1594.91 512.468 1598.12 513.195 1601.34 513.926C1603.42 514.393 1605.5 514.858 1607.58 515.323C1608.99 515.64 1610.4 515.959 1611.81 516.28C1619.91 518.128 1627.9 519.659 1636.17 520.598C1641.49 521.215 1646.75 522.06 1652.03 522.987C1652.86 523.133 1653.69 523.278 1654.55 523.429C1656.27 523.731 1658 524.034 1659.72 524.337C1677.26 527.392 1694.63 529.7 1712.38 531.041C1715.79 531.306 1719.19 531.636 1722.6 531.986C1766.36 536.461 1810.44 535.447 1854.16 531.148C1860.1 530.566 1866.04 530.063 1871.99 529.642C1891.91 528.21 1911.53 525.65 1931.25 522.49C1936.07 521.718 1940.89 520.984 1945.72 520.276C1953.44 519.141 1961.14 517.908 1968.83 516.543C1969.7 516.39 1970.57 516.237 1971.46 516.079C1974.98 515.456 1978.49 514.832 1982.01 514.193C1991.83 512.412 2001.29 510.759 2011.32 511.368C2012.76 515.371 2013.68 519.121 2014.23 523.334C2015.29 530.641 2017.01 537.711 2018.82 544.862C2020.86 552.908 2022.61 560.837 2023.79 569.053C2024.77 575.144 2026.3 581.112 2027.76 587.105C2030.02 596.535 2032.08 605.938 2033.63 615.51C2034.55 620.64 2035.76 625.683 2037.05 630.732C2037.95 634.349 2038.53 637.615 2038.32 641.346C2037.66 641.346 2037 641.346 2036.32 641.346C2036.32 642.006 2036.32 642.666 2036.32 643.346C2027.97 645.532 2019.66 647.552 2011.16 649.059C2005.51 650.08 1999.9 651.301 1994.29 652.54C1982.41 655.156 1970.62 657.373 1958.56 658.917C1954.62 659.438 1950.68 659.998 1946.74 660.562C1919.26 664.479 1919.26 664.479 1907.66 665.654C1906.92 665.731 1906.18 665.807 1905.42 665.885C1902.05 666.201 1898.72 666.356 1895.34 666.299C1889.05 666.25 1882.81 666.945 1876.56 667.51C1822.31 672.329 1767.73 672.804 1713.39 669.341C1712.37 669.278 1711.36 669.215 1710.31 669.15C1673.7 666.869 1636.93 664.045 1600.75 657.728C1597.59 657.208 1594.42 656.934 1591.23 656.656C1578.82 655.378 1566.63 652.328 1554.46 649.648C1549.89 648.645 1545.3 647.731 1540.7 646.845C1533.89 645.498 1527.27 643.736 1520.62 641.783C1512 639.264 1512 639.264 1503.24 637.311C1498.45 636.407 1493.93 635.014 1489.31 633.472C1482.79 631.355 1476.3 629.491 1469.64 627.883C1454.62 624.231 1439.95 619.682 1425.45 614.35C1424.47 614.003 1423.49 613.655 1422.48 613.296C1411.94 609.544 1401.33 605.718 1391.6 600.138C1386.68 598.339 1381.55 601.322 1376.9 603.102C1376.19 603.37 1375.48 603.637 1374.75 603.912C1370.55 605.512 1366.4 607.203 1362.27 608.976C1357.19 611.134 1352.04 612.756 1346.75 614.319C1343.44 615.359 1340.25 616.568 1337.03 617.85C1331.47 620.041 1325.87 621.726 1320.1 623.306C1314.95 624.785 1309.91 626.536 1304.85 628.297C1301.47 629.348 1301.47 629.348 1298.66 629.805C1295.38 630.364 1292.28 631.175 1289.08 632.09C1287.86 632.432 1286.65 632.774 1285.4 633.127C1284.77 633.306 1284.14 633.485 1283.49 633.67C1274.15 636.316 1264.86 638.852 1255.3 640.581C1250.19 641.606 1245.16 642.922 1240.11 644.221C1228.62 647.157 1217.06 649.512 1205.42 651.765C1202.62 652.319 1199.84 652.904 1197.05 653.508C1195.78 653.783 1195.78 653.783 1194.48 654.064C1192.94 654.401 1191.4 654.742 1189.86 655.088C1186.28 655.867 1182.77 656.451 1179.12 656.773C1174.36 657.204 1169.66 657.9 1164.95 658.648C1164.15 658.773 1163.36 658.898 1162.54 659.027C1159.25 659.549 1155.95 660.075 1152.66 660.608C1129.1 664.406 1105.46 666.673 1081.65 668.222C1077.89 668.467 1074.13 668.722 1070.38 668.978C1044.94 670.689 1019.6 671.548 994.102 671.528C993.443 671.528 992.785 671.528 992.106 671.528C960.119 671.521 928.329 670.3 896.478 667.307C895.791 667.243 895.104 667.179 894.397 667.113C892.565 666.941 890.734 666.763 888.903 666.585C885.489 666.292 885.489 666.292 881.76 666.368C878.564 666.342 878.564 666.342 876.565 665.342C874.307 665.177 872.046 665.058 869.785 664.959C859.465 664.412 849.296 662.924 839.073 661.468C835.135 660.914 831.197 660.365 827.259 659.816C826.309 659.683 825.36 659.55 824.382 659.413C818.533 658.599 812.682 657.864 806.813 657.206C793.999 655.767 781.394 653.346 768.75 650.856C767.235 650.559 765.72 650.262 764.206 649.966C763.467 649.821 762.728 649.676 761.966 649.527C757.439 648.655 752.918 647.946 748.346 647.345C741.3 646.388 734.528 644.718 727.659 642.908C720.31 641.013 713.008 639.135 705.538 637.784C698.985 636.56 692.768 634.606 686.443 632.539C682.148 631.137 677.89 629.864 673.482 628.848C667.768 627.506 662.326 625.559 656.835 623.505C653.287 622.199 649.831 621.132 646.125 620.369C641.567 619.414 637.417 617.862 633.116 616.1C627.2 613.735 621.27 611.486 615.245 609.414C608.803 607.182 602.453 604.76 596.124 602.228C595.311 601.903 594.499 601.578 593.662 601.244C588.956 599.344 584.312 597.343 579.702 595.221C577.539 594.317 575.388 593.659 573.129 593.042C567.721 591.498 562.624 589.36 557.446 587.188C552.103 584.95 546.729 582.813 541.323 580.731C518.922 572.074 497.094 562.193 475.661 551.373C473.671 550.372 471.678 549.381 469.682 548.393C452.045 539.653 434.537 530.508 417.662 520.366C416.025 519.412 414.388 518.46 412.749 517.511C394.852 507.088 394.852 507.088 386.789 500.948C383.882 498.784 380.857 497.091 377.67 495.37C374.304 493.42 371.164 491.322 368.047 488.996C361.944 484.508 355.687 480.258 349.402 476.03C344.945 473.011 340.77 469.871 336.679 466.375C335.751 465.757 334.823 465.138 333.867 464.501C330.64 462.349 327.63 460.038 324.584 457.642C319.989 454.056 315.348 450.53 310.712 446.998C307.002 444.166 303.324 441.304 299.686 438.38C298.102 437.145 296.517 435.91 294.931 434.677C288.974 430.033 283.131 425.283 277.388 420.378C273.921 417.417 270.419 414.51 266.881 411.634C262.983 408.462 259.173 405.214 255.411 401.882C253.935 400.595 252.413 399.36 250.884 398.137C249.006 396.634 247.393 395.083 245.698 393.387C244.729 392.583 243.76 391.779 242.761 390.95C240.256 388.854 238.004 386.693 235.7 384.389C234.896 383.75 234.092 383.11 233.263 382.452C230.529 380.251 228.157 377.901 225.702 375.39C224.204 373.889 222.704 372.39 221.203 370.891C218.857 368.549 216.519 366.203 214.205 363.83C211.933 361.615 209.596 359.54 207.206 357.456C203.633 354.309 200.676 351.106 197.708 347.395C195.014 344.559 192.231 341.994 189.21 339.521C186.197 336.984 184.08 334.313 181.891 331.058C180.107 328.547 177.94 326.515 175.713 324.399C172.446 321.212 169.542 317.977 166.715 314.401C162.342 309.285 162.342 309.285 157.716 304.402C157.716 303.412 157.716 302.423 157.716 301.403C157.118 301.147 156.52 300.891 155.904 300.628C153.485 299.273 152.375 298.019 150.73 295.806C150.192 295.091 149.654 294.377 149.1 293.641C148.261 292.503 148.261 292.503 147.406 291.342C146.241 289.787 145.076 288.233 143.911 286.679C143.357 285.935 142.803 285.191 142.232 284.424C140.473 282.076 138.668 279.768 136.846 277.469C133.923 273.725 131.18 269.875 128.504 265.952C127.284 264.21 126.01 262.505 124.692 260.835C119.148 253.652 119.148 253.652 119.037 249.286C120.005 245.131 122.952 243.478 126.348 241.163C128.455 239.883 130.578 238.63 132.722 237.413C133.382 237.036 134.041 236.658 134.721 236.269C135.526 235.815 135.526 235.815 136.346 235.351C139.983 233.263 143.331 230.919 146.75 228.497C150.38 225.951 154.04 223.455 157.716 220.979C158.376 220.529 159.035 220.08 159.714 219.617C164.484 216.417 164.484 216.417 166.715 216.417C166.715 215.757 166.715 215.097 166.715 214.417C168.374 213.078 168.374 213.078 170.776 211.48C175.427 208.318 179.991 205.061 184.523 201.732C185.474 201.037 185.474 201.037 186.443 200.328C189.161 198.333 191.838 196.317 194.47 194.21C196.708 192.421 196.708 192.421 199.708 190.484C202.788 188.5 202.788 188.5 205.331 185.797C207.528 183.6 209.007 182.772 211.705 181.423C213.393 179.778 215.058 178.11 216.704 176.424C221.534 172.284 224.371 170.687 230.701 172.424Z" fill="white"/>
<path d="M1383.88 747.902C1387.39 747.89 1390.9 747.841 1394.41 747.79C1422.72 747.588 1451.47 753.448 1477.24 765.324C1478.84 765.939 1480.44 766.543 1482.05 767.137C1486.84 769.03 1491.37 771.37 1495.92 773.76C1496.64 774.132 1497.35 774.504 1498.08 774.887C1502.76 777.378 1506.96 780.197 1511.23 783.321C1512.96 784.297 1514.7 785.273 1516.43 786.243C1527.01 792.578 1537.66 801.496 1546.23 810.317C1546.23 810.977 1546.23 811.637 1546.23 812.317C1546.78 812.543 1547.34 812.77 1547.91 813.004C1550.89 814.692 1552.94 816.783 1555.22 819.315C1555.22 819.975 1555.22 820.635 1555.22 821.315C1555.77 821.504 1556.32 821.694 1556.88 821.889C1560.32 823.981 1562.32 826.94 1564.72 830.126C1565.67 831.362 1566.62 832.597 1567.56 833.832C1568.02 834.426 1568.47 835.02 1568.93 835.631C1570.08 837.131 1571.26 838.608 1572.44 840.081C1574.55 842.72 1576.36 845.495 1578.22 848.311C1579 849.362 1579.79 850.414 1580.59 851.497C1583.37 855.347 1585.57 859.47 1587.79 863.66C1588.75 865.449 1589.76 867.214 1590.81 868.956C1592.21 871.289 1593.26 873.654 1594.29 876.165C1594.95 877.697 1595.67 879.206 1596.42 880.696C1605.28 898.56 1610.5 917.454 1613.71 937.046C1613.84 937.796 1613.96 938.546 1614.09 939.319C1620.39 978.167 1617.08 1018.36 1603.21 1055.28C1602.75 1056.56 1602.29 1057.85 1601.83 1059.14C1599.75 1064.81 1597.39 1070.03 1594.33 1075.23C1593.24 1077.22 1592.5 1079.13 1591.78 1081.27C1590.37 1085.29 1588.18 1088.5 1585.76 1091.98C1584.27 1094.19 1582.98 1096.43 1581.72 1098.77C1578.19 1105.24 1574.46 1111.07 1569.22 1116.27C1567.97 1117.79 1566.74 1119.33 1565.53 1120.89C1560.19 1127.64 1554.57 1134.42 1548.23 1140.26C1547.57 1140.26 1546.91 1140.26 1546.23 1140.26C1545.98 1140.84 1545.74 1141.42 1545.48 1142.01C1541.43 1149.26 1532.65 1154.57 1526.1 1159.51C1525.45 1160 1524.79 1160.5 1524.12 1161.01C1519.63 1164.34 1515.01 1167.36 1510.23 1170.26C1509.43 1170.76 1508.62 1171.26 1507.79 1171.78C1502.77 1174.84 1497.66 1177.71 1492.49 1180.51C1491.55 1181.02 1491.55 1181.02 1490.59 1181.54C1486.88 1183.52 1483.23 1184.95 1479.24 1186.25C1477.97 1186.81 1476.71 1187.37 1475.45 1187.95C1466.13 1192.21 1456.78 1195.47 1446.87 1198.06C1445.84 1198.34 1444.8 1198.62 1443.73 1198.91C1426.22 1203.31 1408.84 1204.75 1390.84 1204.64C1387.7 1204.63 1384.55 1204.64 1381.41 1204.66C1363.03 1204.68 1345.75 1202.36 1328.02 1197.5C1327.07 1197.24 1327.07 1197.24 1326.09 1196.98C1316.01 1194.25 1306.66 1190.81 1297.28 1186.25C1295.64 1185.61 1293.99 1184.99 1292.34 1184.38C1273.31 1176.89 1255.38 1164.94 1240.29 1151.26C1239.42 1150.5 1238.55 1149.74 1237.65 1148.96C1236.75 1148.17 1235.84 1147.39 1234.92 1146.57C1234.08 1145.85 1233.25 1145.12 1232.39 1144.37C1230.29 1142.26 1230.29 1142.26 1229.25 1140.12C1228 1137.7 1226.73 1137.41 1224.29 1136.26C1217.45 1130.34 1211.91 1123.47 1206.52 1116.25C1205.12 1114.37 1203.68 1112.51 1202.2 1110.69C1200.33 1108.31 1198.82 1105.89 1197.3 1103.27C1196.24 1101.62 1195.18 1099.97 1194.11 1098.33C1177.63 1072.31 1165.99 1043.35 1161.81 1012.72C1161.68 1011.79 1161.55 1010.87 1161.41 1009.91C1158.54 988.926 1158.12 967.612 1161 946.599C1161.32 944.197 1161.61 941.792 1161.9 939.385C1164.61 918.03 1171.4 896.439 1181.3 877.306C1181.7 876.489 1182.1 875.671 1182.51 874.83C1184.95 869.817 1187.57 864.918 1190.3 860.059C1190.94 858.919 1191.58 857.78 1192.24 856.606C1193.74 854.202 1195.15 852.206 1196.96 850.072C1199.39 847.437 1199.39 847.437 1200.74 844.374C1202.35 841.207 1204.15 838.985 1206.5 836.355C1208.62 833.945 1210.61 831.445 1212.61 828.939C1216.86 823.717 1221.45 818.988 1226.29 814.316C1227.16 813.45 1228.03 812.584 1228.92 811.692C1230.09 810.516 1230.09 810.516 1231.29 809.317C1231.82 808.763 1232.35 808.209 1232.9 807.638C1236.3 804.136 1239.7 801.178 1243.73 798.436C1245.46 797.261 1245.46 797.261 1247.35 795.257C1249.78 792.832 1252.4 791.173 1255.29 789.32C1256.64 788.405 1258 787.488 1259.35 786.571C1273.34 777.281 1287.64 769.513 1303.28 763.325C1304.36 762.865 1305.44 762.404 1306.56 761.93C1315.5 758.306 1324.58 755.848 1333.96 753.576C1335.17 753.283 1336.38 752.989 1337.63 752.686C1341.17 751.855 1344.71 751.076 1348.27 750.327C1349.21 750.119 1350.16 749.91 1351.13 749.696C1361.93 747.663 1372.94 747.919 1383.88 747.902Z" fill="#0B96A1"/>
<path d="M2543.18 174.609C2555.49 177.278 2565.9 186.267 2575.98 193.419C2578.41 195.069 2580.85 196.66 2583.32 198.23C2584.1 198.725 2584.87 199.219 2585.67 199.729C2587.24 200.721 2588.81 201.707 2590.38 202.686C2591.09 203.14 2591.81 203.594 2592.55 204.061C2593.2 204.467 2593.84 204.873 2594.51 205.291C2594.98 205.662 2595.44 206.034 2595.91 206.417C2595.91 207.076 2595.91 207.736 2595.91 208.416C2597.21 208.782 2597.21 208.782 2598.52 209.154C2602.23 210.533 2604.95 212.305 2608.16 214.603C2608.73 215.003 2609.29 215.403 2609.87 215.815C2611.02 216.626 2612.16 217.441 2613.3 218.258C2615.57 219.889 2617.87 221.496 2620.16 223.101C2620.96 223.666 2621.77 224.23 2622.6 224.812C2624.75 226.305 2626.92 227.773 2629.09 229.225C2629.81 229.703 2630.53 230.182 2631.27 230.674C2633.41 232.088 2635.57 233.481 2637.73 234.869C2639.1 235.758 2640.47 236.647 2641.84 237.536C2642.51 237.956 2643.17 238.376 2643.85 238.809C2647.26 241.035 2649.31 242.658 2650.9 246.41C2651.89 246.74 2652.88 247.07 2653.9 247.41C2655.57 253.965 2655.57 253.965 2653.81 257.767C2650.92 262.156 2647.62 265.698 2643.9 269.406C2642.44 271.114 2641.01 272.844 2639.59 274.593C2638.42 276.037 2638.42 276.037 2637.23 277.51C2635.12 280.139 2633.01 282.77 2630.91 285.403C2629.57 287.07 2628.24 288.737 2626.91 290.403C2625.84 291.731 2625.84 291.731 2624.76 293.086C2620.08 298.875 2615.2 304.405 2610.15 309.872C2608.23 312.039 2606.54 314.202 2604.91 316.586C2604.25 317.514 2603.59 318.442 2602.91 319.398C2602.25 319.398 2601.59 319.398 2600.91 319.398C2600.69 319.939 2600.47 320.48 2600.24 321.038C2598.49 324.147 2596.16 326.575 2593.73 329.146C2592.73 330.219 2591.72 331.293 2590.72 332.368C2590.24 332.888 2589.75 333.407 2589.25 333.943C2587.56 335.785 2585.92 337.677 2584.29 339.582C2581.07 343.301 2577.6 346.725 2574.1 350.178C2572.14 352.169 2570.3 354.205 2568.48 356.329C2562.51 363.268 2555.94 369.531 2549.04 375.526C2544.84 379.226 2540.81 383.107 2536.75 386.957C2525.7 397.385 2525.7 397.385 2522.93 397.385C2522.72 397.962 2522.52 398.539 2522.3 399.134C2520.43 402.205 2517.94 403.438 2514.93 405.383C2514.09 406.249 2513.24 407.116 2512.37 408.008C2509.93 410.383 2509.93 410.383 2507.25 411.445C2504.79 412.139 2504.79 412.139 2504.02 414.253C2502.74 416.766 2501.47 417.735 2499.18 419.381C2494.95 422.553 2490.93 425.913 2486.94 429.379C2482.33 433.363 2477.68 437.231 2472.83 440.92C2471.07 442.276 2469.38 443.683 2467.69 445.127C2464.94 447.376 2464.94 447.376 2462.38 448.876C2459.79 450.34 2459.79 450.34 2457.51 452.813C2454.82 455.497 2452.11 457.281 2448.95 459.374C2447.67 460.298 2446.41 461.231 2445.15 462.171C2444.5 462.654 2443.85 463.137 2443.18 463.635C2441.84 464.64 2440.5 465.648 2439.16 466.658C2434.17 470.373 2434.17 470.373 2431.95 470.373C2431.95 471.032 2431.95 471.692 2431.95 472.372C2425.2 476.372 2425.2 476.372 2422.95 476.372C2422.95 477.031 2422.95 477.691 2422.95 478.371C2421.46 479.604 2421.46 479.604 2419.37 480.98C2418.6 481.485 2417.84 481.989 2417.06 482.509C2416.24 483.04 2415.42 483.572 2414.58 484.12C2413.75 484.664 2412.93 485.207 2412.07 485.767C2407.15 488.991 2402.18 492.114 2397.1 495.087C2394.89 496.405 2392.77 497.805 2390.65 499.243C2381.08 505.684 2371.12 511.468 2361.13 517.22C2356.1 520.114 2351.11 523.053 2346.15 526.051C2336.37 531.959 2326.45 537.62 2316.38 543.036C2314.76 543.927 2313.17 544.863 2311.6 545.84C2308.49 547.638 2305.28 548.962 2301.98 550.359C2299.41 551.569 2296.88 552.835 2294.35 554.109C2293.66 554.456 2292.97 554.803 2292.25 555.16C2287.82 557.391 2283.45 559.717 2279.11 562.107C2274.62 564.553 2270.15 566.59 2265.38 568.395C2262.83 569.417 2260.43 570.603 2257.99 571.856C2253.98 573.902 2249.94 575.632 2245.75 577.261C2242.51 578.545 2239.31 579.914 2236.12 581.291C2231.68 583.198 2227.25 585.104 2222.81 586.978C2221.52 587.523 2221.52 587.523 2220.2 588.079C2217.4 589.192 2214.59 590.23 2211.75 591.251C2208.19 592.536 2204.66 593.865 2201.16 595.289C2185.55 601.622 2169.65 606.935 2153.65 612.169C2149.06 613.671 2144.48 615.196 2139.9 616.734C2132.83 619.107 2125.76 621.408 2118.58 623.409C2117.27 623.78 2117.27 623.78 2115.93 624.158C2108.7 626.185 2101.45 628.104 2094.18 629.99C2090.3 631.003 2086.42 632.049 2082.55 633.107C2052.7 641.251 2052.7 641.251 2040.03 642.344C2040.69 642.014 2041.35 641.684 2042.03 641.344C2041.83 640.494 2041.64 639.644 2041.44 638.768C2035 610.802 2035 610.802 2032.85 597.656C2031.65 590.872 2029.88 584.194 2028.19 577.519C2026.9 572.36 2025.82 567.264 2025.07 561.998C2024.03 554.826 2022.31 547.88 2020.54 540.861C2018.44 532.599 2016.61 524.442 2015.45 515.992C2015.1 513.265 2015.1 513.265 2014.04 510.366C2039.29 502.481 2039.29 502.481 2051.42 499.352C2056.54 497.955 2061.59 496.334 2066.64 494.715C2072.27 492.914 2077.92 491.181 2083.58 489.494C2091.61 487.097 2099.63 484.685 2107.64 482.246C2108.72 481.921 2109.8 481.596 2110.91 481.262C2116.65 479.507 2122.24 477.585 2127.77 475.257C2130.15 474.316 2132.55 473.577 2135.01 472.872C2142.09 470.822 2148.78 467.887 2155.57 465.053C2159.74 463.312 2163.92 461.586 2168.11 459.874C2169.11 459.462 2170.12 459.049 2171.15 458.624C2173.19 457.787 2175.23 456.954 2177.27 456.125C2182.7 453.882 2187.82 451.436 2192.91 448.498C2195.55 447.082 2198.25 446.092 2201.07 445.097C2204.33 443.878 2207.4 442.28 2210.5 440.69C2211.9 439.976 2213.31 439.263 2214.71 438.55C2215.42 438.188 2216.13 437.827 2216.87 437.454C2218.91 436.42 2220.97 435.403 2223.02 434.394C2230.62 430.661 2238.07 426.746 2245.41 422.525C2249.18 420.365 2252.99 418.366 2256.88 416.444C2260.8 414.465 2264.64 412.322 2268.48 410.195C2269.35 409.715 2270.22 409.236 2271.12 408.741C2277.27 405.344 2283.4 401.914 2289.52 398.455C2293.29 396.322 2297.09 394.243 2300.91 392.198C2305.08 389.948 2308.96 387.429 2312.86 384.754C2314.85 383.465 2316.83 382.409 2318.97 381.387C2322.67 379.61 2325.98 377.467 2329.36 375.15C2331.89 373.442 2334.46 371.797 2337.03 370.163C2343.87 365.821 2350.46 361.225 2356.96 356.392C2358.8 355.056 2360.63 353.723 2362.46 352.392C2363.37 351.734 2364.27 351.075 2365.21 350.396C2367.06 349.047 2368.92 347.701 2370.78 346.358C2383.64 337.063 2395.88 327.085 2407.88 316.716C2411.87 313.289 2415.95 310.038 2420.13 306.849C2422.6 304.881 2424.78 302.695 2426.95 300.401C2429.78 297.417 2432.62 294.862 2435.95 292.465C2438.53 290.583 2440.64 288.773 2442.63 286.278C2444.88 283.484 2447.12 281.59 2449.95 279.404C2451.63 277.759 2453.3 276.092 2454.94 274.405C2456.61 272.737 2458.28 271.071 2459.94 269.406C2460.77 268.581 2461.59 267.756 2462.44 266.906C2469.94 259.408 2469.94 259.408 2472.52 256.865C2475.31 254.031 2477.84 251.036 2480.39 247.984C2480.9 247.464 2481.41 246.945 2481.94 246.41C2482.6 246.41 2483.26 246.41 2483.94 246.41C2484.19 245.853 2484.43 245.296 2484.69 244.723C2486.17 241.987 2487.87 239.734 2489.94 237.411C2490.6 237.411 2491.26 237.411 2491.94 237.411C2492.18 236.847 2492.43 236.282 2492.68 235.701C2494.16 232.999 2495.96 231.04 2498.06 228.788C2505.25 220.937 2511.64 212.546 2517.95 203.983C2519.52 201.943 2521.1 200.209 2522.93 198.418C2523.86 197.021 2524.79 195.624 2525.7 194.215C2527.71 191.281 2529.92 188.52 2532.14 185.744C2533.95 183.458 2533.95 183.458 2535.47 181.065C2539.06 175.639 2539.06 175.639 2543.18 174.609Z" fill="#F6832B"/>
<path d="M1651.68 240.412C1658.89 241.695 1664.98 246.886 1670.8 251.035C1674.28 253.51 1677.69 255.504 1681.54 257.316C1687.12 260.171 1692.31 263.817 1697.5 267.31C1701.92 270.23 1706.42 273.002 1710.92 275.783C1714.29 277.871 1717.52 280.008 1720.67 282.405C1721.56 282.838 1722.44 283.271 1723.36 283.717C1729.49 286.84 1735 290.929 1740.6 294.903C1743.94 297.26 1747.32 299.414 1750.85 301.464C1761.25 307.585 1761.25 307.585 1763.66 312.4C1765.12 323.247 1760.36 330.269 1754.1 338.708C1752.63 340.613 1751.15 342.509 1749.66 344.395C1748.98 345.258 1748.3 346.122 1747.6 347.012C1745.36 349.767 1743.01 352.401 1740.64 355.038C1738.96 357.042 1737.42 359.075 1735.87 361.185C1732.76 365.366 1729.33 369.128 1725.73 372.89C1724.48 374.207 1723.24 375.524 1722 376.842C1721.41 377.46 1720.83 378.078 1720.23 378.715C1718.43 380.647 1716.69 382.627 1714.98 384.638C1709.7 390.785 1703.75 396.351 1697.98 402.037C1695.59 404.396 1695.59 404.396 1693.36 407.259C1690.79 410.417 1687.81 412.96 1684.72 415.598C1682.78 417.291 1680.98 419.047 1679.18 420.882C1676.22 423.884 1673.13 426.66 1669.94 429.404C1666.21 432.663 1662.62 436.06 1659 439.438C1656.68 441.379 1656.68 441.379 1654.68 441.379C1654.48 441.956 1654.27 442.533 1654.06 443.128C1652.18 446.199 1649.69 447.432 1646.68 449.377C1645 451.023 1643.33 452.689 1641.69 454.376C1638.07 457.376 1638.07 457.376 1635.69 457.376C1635.43 457.976 1635.17 458.575 1634.91 459.193C1633.57 461.577 1632.37 462.67 1630.2 464.293C1629.5 464.821 1628.8 465.349 1628.08 465.893C1627.33 466.443 1626.58 466.994 1625.81 467.562C1625.05 468.133 1624.29 468.705 1623.5 469.293C1621.96 470.448 1620.42 471.6 1618.87 472.749C1616.93 474.194 1615 475.652 1613.07 477.119C1608.71 480.433 1604.42 483.597 1599.69 486.371C1598.02 487.428 1596.36 488.491 1594.7 489.558C1592.7 490.83 1590.7 492.1 1588.7 493.37C1587.61 494.061 1586.53 494.752 1585.41 495.463C1579.32 499.288 1573.37 502.656 1566.7 505.368C1566.7 506.028 1566.7 506.688 1566.7 507.368C1551.53 506.36 1537.07 502.828 1522.35 499.229C1518.71 498.369 1515.06 497.595 1511.4 496.838C1505.77 495.649 1500.36 494.144 1494.9 492.308C1490.33 490.782 1485.82 489.346 1481.1 488.367C1477.01 487.502 1473.33 486.135 1469.47 484.496C1464.83 482.562 1460.26 480.869 1455.41 479.497C1448.28 477.401 1441.66 474.343 1434.91 471.264C1431.68 469.788 1428.42 468.412 1425.11 467.124C1421.55 465.74 1418.19 464.129 1414.8 462.379C1411.68 460.866 1408.46 459.639 1405.23 458.403C1402.74 457.376 1402.74 457.376 1399.84 455.821C1393.29 452.77 1386.07 452.345 1379.17 454.482C1375.64 456.016 1372.2 457.686 1368.74 459.376C1366.57 460.233 1364.38 461.067 1362.18 461.875C1357.78 463.541 1353.51 465.369 1349.25 467.374C1341.24 471.136 1333.02 474.211 1324.69 477.185C1321.16 478.448 1317.68 479.799 1314.22 481.224C1304.84 485.074 1295.55 488.5 1285.78 491.218C1281.82 492.325 1277.96 493.645 1274.08 494.995C1268.37 496.922 1262.75 498.329 1256.84 499.494C1253.7 500.138 1250.61 500.919 1247.5 501.744C1236.44 504.678 1225.39 507.169 1214.09 508.992C1212.94 509.193 1211.78 509.394 1210.6 509.601C1202.54 510.815 1202.54 510.815 1198.94 508.699C1198.23 507.93 1197.51 507.161 1196.78 506.368C1194.5 505.013 1192.23 503.705 1189.91 502.431C1186.11 500.308 1182.35 498.201 1178.85 495.62C1176.2 493.678 1173.54 492.085 1170.69 490.477C1167.55 488.653 1164.55 486.643 1161.54 484.621C1160.88 484.182 1160.23 483.744 1159.55 483.291C1153.86 479.458 1148.31 475.455 1142.79 471.374C1141.51 470.439 1140.23 469.506 1138.96 468.573C1137.61 467.59 1136.26 466.608 1134.92 465.625C1133.97 464.934 1133.97 464.934 1133.01 464.23C1128.13 460.662 1123.42 456.978 1118.92 452.939C1116.4 450.715 1113.87 448.662 1111.11 446.753C1107.99 444.587 1105.42 442.139 1102.8 439.379C1100.02 436.541 1097.18 433.793 1094.25 431.119C1093.63 430.557 1093.02 429.996 1092.39 429.418C1091.1 428.253 1089.82 427.092 1088.53 425.934C1087.93 425.376 1087.32 424.819 1086.69 424.245C1086.13 423.742 1085.58 423.24 1085.01 422.723C1083.8 421.382 1083.8 421.382 1083.8 419.382C1083.21 419.13 1082.63 418.877 1082.02 418.617C1079.54 417.238 1078.18 415.796 1076.37 413.633C1075.77 412.924 1075.17 412.215 1074.56 411.485C1073.69 410.445 1073.69 410.445 1072.81 409.384C1072.29 408.794 1071.77 408.203 1071.24 407.595C1067.81 403.631 1067.81 403.631 1067.81 401.385C1067.2 401.124 1066.6 400.862 1065.97 400.592C1063.63 399.289 1062.7 398.248 1061.18 396.074C1058.42 392.225 1055.58 388.451 1052.68 384.701C1052.06 383.881 1052.06 383.881 1051.41 383.045C1049.51 380.572 1047.59 378.119 1045.62 375.698C1043.79 373.36 1042.37 370.922 1040.93 368.328C1037.6 362.55 1033.67 357.176 1029.69 351.831C1026.96 348.117 1024.73 344.524 1022.8 340.352C1021.66 338.087 1020.31 336.055 1018.88 333.959C1015.89 329.58 1013.32 325.07 1010.82 320.399C1010.4 319.683 1009.98 318.968 1009.55 318.231C1008.97 317.201 1008.97 317.201 1008.38 316.149C1008.03 315.546 1007.68 314.943 1007.32 314.322C1006.57 311.432 1007.4 309.971 1008.82 307.401C1010.74 305.741 1010.74 305.741 1013.01 304.339C1013.82 303.832 1014.62 303.326 1015.46 302.804C1017.94 301.326 1020.44 299.859 1022.96 298.449C1030.35 294.278 1037.53 289.732 1044.73 285.237C1047.7 283.471 1050.72 281.939 1053.81 280.405C1055.44 279.444 1057.07 278.466 1058.68 277.468C1062.29 275.282 1065.91 273.299 1069.7 271.454C1077.12 267.767 1084.27 263.58 1091.45 259.452C1096.57 256.518 1101.75 253.72 1106.96 250.953C1109.8 249.455 1109.8 249.455 1112.42 247.712C1114.8 246.411 1114.8 246.411 1118.8 246.411C1118.8 245.751 1118.8 245.091 1118.8 244.411C1122.68 243.302 1124.27 243.139 1127.92 245.036C1130.69 247.329 1132.8 249.419 1134.79 252.41C1134.79 253.4 1134.79 254.39 1134.79 255.41C1135.36 255.621 1135.92 255.832 1136.51 256.05C1139.62 257.903 1141.2 260.248 1143.35 263.158C1144.24 264.336 1145.12 265.513 1146 266.689C1146.46 267.3 1146.91 267.911 1147.38 268.54C1149.7 271.616 1152.09 274.634 1154.48 277.656C1155.4 278.826 1156.32 279.996 1157.24 281.167C1157.67 281.718 1158.11 282.269 1158.56 282.836C1160.8 285.694 1163.03 288.565 1165.25 291.439C1167.08 293.775 1168.93 296.09 1170.78 298.402C1171.44 299.218 1172.09 300.034 1172.76 300.875C1184.77 315.756 1197.81 329.461 1212.78 341.395C1213.97 342.409 1215.16 343.429 1216.34 344.457C1224.08 351.255 1224.08 351.255 1232.58 357.006C1233.3 357.463 1234.03 357.921 1234.77 358.392C1234.77 359.052 1234.77 359.712 1234.77 360.392C1235.29 360.624 1235.82 360.856 1236.35 361.095C1239.59 362.832 1242.49 364.981 1245.46 367.141C1249.55 370.103 1253.65 373.013 1257.89 375.765C1260.89 377.727 1263.23 379.853 1265.76 382.388C1267.47 383.386 1269.18 384.38 1270.91 385.322C1272.78 386.4 1274.47 387.596 1276.2 388.887C1279.24 391.11 1282.36 392.742 1285.74 394.367C1288.45 395.732 1290.95 397.344 1293.51 398.972C1300.86 403.585 1308.45 407.786 1316.09 411.907C1319.63 413.87 1323.09 415.977 1326.55 418.082C1328.25 419.084 1329.99 420.002 1331.75 420.882C1334.41 422.21 1336.81 423.672 1339.31 425.256C1344.24 428.258 1349.31 430.249 1354.71 432.228C1357.87 433.429 1360.8 434.848 1363.79 436.418C1366.86 437.927 1370.06 439.078 1373.25 440.297C1375.73 441.373 1377.84 442.669 1380.12 444.128C1385.62 447.198 1390.58 447.665 1396.74 446.378C1401.4 444.505 1405.66 441.931 1409.96 439.365C1412.78 437.797 1415.77 436.635 1418.73 435.38C1420.44 434.416 1422.13 433.419 1423.79 432.38C1426.4 430.782 1428.92 429.287 1431.67 427.943C1436.57 425.441 1441.11 422.372 1445.73 419.382C1447.41 418.299 1449.1 417.217 1450.78 416.135C1452.56 414.995 1454.33 413.853 1456.1 412.711C1458.52 411.153 1460.95 409.602 1463.38 408.056C1469.52 404.139 1475.57 400.136 1481.51 395.921C1484.05 394.154 1486.66 392.53 1489.3 390.918C1491.39 389.597 1493.43 388.239 1495.48 386.856C1496.49 386.173 1496.49 386.173 1497.52 385.475C1498.89 384.551 1500.25 383.622 1501.61 382.69C1506.49 379.389 1506.49 379.389 1508.71 379.389C1508.71 378.729 1508.71 378.069 1508.71 377.389C1515.46 373.39 1515.46 373.39 1517.71 373.39C1517.71 372.73 1517.71 372.07 1517.71 371.39C1519.68 369.888 1521.65 368.505 1523.71 367.141C1524.91 366.331 1526.11 365.52 1527.31 364.708C1527.89 364.312 1528.48 363.917 1529.08 363.509C1531.79 361.649 1534.39 359.654 1537 357.658C1538.59 356.482 1540.24 355.402 1541.89 354.331C1544.81 352.445 1544.81 352.445 1547.33 349.769C1549.7 347.394 1549.7 347.394 1551.77 346.394C1554.5 344.985 1555.83 342.8 1557.7 340.395C1561.22 337.396 1561.22 337.396 1563.7 337.396C1563.94 336.82 1564.18 336.244 1564.42 335.65C1565.97 332.925 1567.76 331.371 1570.14 329.335C1577.79 322.615 1585.01 315.507 1591.62 307.76C1594.57 304.405 1597.64 301.16 1600.69 297.903C1610.4 287.543 1610.4 287.543 1619.14 276.363C1620.69 274.406 1620.69 274.406 1622.96 272.161C1626.29 268.801 1629.22 265.212 1632.19 261.534C1632.74 260.852 1633.3 260.17 1633.87 259.468C1636.53 256.185 1639.08 252.885 1641.47 249.403C1642.56 247.922 1642.56 247.922 1643.69 246.411C1644.34 246.411 1645 246.411 1645.68 246.411C1645.81 245.792 1645.93 245.174 1646.06 244.536C1647.09 241.024 1648.03 240.412 1651.68 240.412Z" fill="#73C5DA"/>
<path d="M82.1474 0.0812618C84.3965 0.0769109 86.6436 0.0405814 88.8923 0.00266164C101.105 -0.0939932 111.717 2.43928 122.661 8.01304C123.319 8.34379 123.977 8.67454 124.655 9.01532C132.745 13.2648 140.257 18.9863 146.718 25.4476C146.718 26.4375 146.718 27.4273 146.718 28.4471C147.321 28.7126 147.924 28.9781 148.546 29.2517C157.149 33.9866 162.478 47.6943 165.459 56.6914C172.071 79.7099 170.372 104.998 158.723 126.04C156.306 130.123 153.822 133.846 150.717 137.429C150.124 138.152 149.531 138.875 148.921 139.62C134.199 157.021 115.07 165.836 92.7294 168.424C69.9844 170.138 50.0034 163.872 31.7423 150.427C30.2576 149.437 30.2576 149.437 28.7429 148.427C28.7429 147.767 28.7429 147.107 28.7429 146.427C28.1629 146.181 27.583 145.935 26.9855 145.681C14.172 138.515 6.76132 120.08 2.58435 106.708C-2.10188 88.3559 -0.276059 66.8836 6.935 49.6311C7.29707 48.7594 7.65914 47.8876 8.03218 46.9895C10.7958 40.7331 14.3584 35.6703 18.745 30.4468C19.2791 29.7891 19.8133 29.1314 20.3636 28.4537C23.771 24.2739 27.5046 20.7745 31.7423 17.449C32.4137 16.9051 33.0852 16.3612 33.777 15.8008C39.1217 11.7485 44.7691 8.86647 50.8632 6.13836C51.615 5.80084 52.3668 5.46332 53.1413 5.11558C62.8508 0.910888 71.654 0.078996 82.1474 0.0812618Z" fill="#73C5DA"/>
<path d="M2687.02 0.0812614C2689.27 0.0769105 2691.52 0.040581 2693.77 0.00266124C2706.12 -0.0953449 2716.75 2.51135 2727.79 8.20051C2728.46 8.54117 2729.13 8.88183 2729.82 9.23281C2735.67 12.3001 2740.65 16.0786 2745.6 20.4485C2746.68 21.2832 2747.76 22.1166 2748.84 22.9481C2752.33 26.1155 2754.91 29.5917 2757.59 33.4463C2758.1 34.1603 2758.61 34.8743 2759.13 35.61C2772.68 55.2274 2776.41 77.7408 2772.71 101.143C2771.51 107.725 2769.74 113.55 2766.59 119.432C2766.12 120.413 2765.65 121.394 2765.17 122.404C2758.86 135.033 2749.6 146.726 2737.6 154.426C2734.78 155.16 2734.78 155.16 2732.6 155.426C2732.6 156.086 2732.6 156.746 2732.6 157.426C2711.15 169.612 2687.32 170.934 2663.71 164.936C2657.56 163.223 2652.07 160.773 2646.62 157.426C2646.62 156.766 2646.62 156.106 2646.62 155.426C2645.94 155.381 2645.26 155.336 2644.56 155.289C2640.34 154.053 2637.74 151.505 2634.49 148.615C2633.87 148.08 2633.25 147.546 2632.62 146.996C2626.72 141.846 2626.72 141.846 2624.62 138.429C2624.62 137.769 2624.62 137.109 2624.62 136.429C2624.01 136.179 2623.4 135.929 2622.77 135.671C2620.25 134.214 2619.57 133.119 2618.25 130.555C2617.83 129.757 2617.41 128.96 2616.99 128.138C2616.54 127.244 2616.09 126.351 2615.62 125.431C2615.1 124.424 2614.58 123.418 2614.04 122.381C2603.86 102.489 2602.7 78.9637 2608.62 57.4423C2609.57 55.0867 2610.57 52.7519 2611.62 50.4435C2612.28 48.98 2612.28 48.98 2612.95 47.4869C2616.37 40.3195 2620.43 34.4332 2625.62 28.4471C2626.07 27.9001 2626.51 27.3531 2626.97 26.7895C2630.41 22.6136 2634 19.2006 2638.37 16.0117C2639 15.5459 2639.64 15.08 2640.3 14.6001C2654.66 4.51306 2669.61 0.0775014 2687.02 0.0812614Z" fill="#F5842C"/>
</g>
<defs>
<clipPath id="clip0_2028_283">
<rect width="2774" height="1205" fill="white"/>
</clipPath>
</defs>
</svg>
