<svg width="2981" height="2981" viewBox="0 0 2981 2981" fill="none" xmlns="http://www.w3.org/2000/svg">
<path d="M333.701 1061.42C338.1 1064.72 341.436 1068.31 344.699 1072.73C345.126 1073.3 345.554 1073.87 345.995 1074.46C346.844 1075.59 347.69 1076.73 348.533 1077.86C349.555 1079.23 350.596 1080.59 351.639 1081.94C352.173 1082.64 352.708 1083.33 353.259 1084.05C353.714 1084.64 354.169 1085.23 354.638 1085.83C355.696 1087.42 355.696 1087.42 356.696 1090.42C357.356 1090.42 358.016 1090.42 358.696 1090.42C359.809 1091.99 359.809 1091.99 361.008 1094.11C363.187 1097.75 365.643 1100.44 368.694 1103.42C369.292 1104.32 369.89 1105.23 370.506 1106.17C374.058 1111.44 378.46 1115.99 382.765 1120.66C383.4 1121.37 384.036 1122.07 384.69 1122.79C385.268 1123.42 385.845 1124.04 386.44 1124.69C387.69 1126.41 387.69 1126.41 387.69 1129.41C388.25 1129.65 388.81 1129.88 389.388 1130.12C392.251 1131.73 394.201 1133.69 396.513 1136.03C396.979 1136.49 397.444 1136.96 397.924 1137.44C399.459 1138.98 400.987 1140.53 402.515 1142.08C403.588 1143.16 404.661 1144.24 405.735 1145.32C408.563 1148.16 411.386 1151 414.207 1153.85C418.706 1158.4 423.212 1162.93 427.721 1167.46C429.285 1169.04 430.845 1170.62 432.406 1172.19C437.654 1177.49 442.992 1182.58 448.677 1187.4C450.857 1189.33 453.02 1191.27 455.175 1193.21C455.712 1193.69 456.248 1194.17 456.8 1194.66C458.13 1195.86 459.408 1197.13 460.674 1198.4C460.674 1199.06 460.674 1199.72 460.674 1200.4C461.231 1200.48 461.788 1200.57 462.361 1200.65C465.948 1201.81 468.458 1204.18 471.094 1206.83C472.795 1208.52 474.556 1210.12 476.358 1211.71C477.292 1212.54 477.292 1212.54 478.245 1213.39C480.937 1215.62 483.715 1217.71 486.521 1219.79C489.319 1221.88 492.087 1224.01 494.856 1226.14C504.164 1233.29 513.501 1240.32 523.284 1246.81C525.547 1248.32 527.802 1249.84 530.054 1251.36C538.44 1257.01 546.855 1262.4 555.654 1267.39C560.842 1270.44 565.963 1273.57 571.026 1276.83C581.799 1283.71 592.997 1289.85 604.185 1296.03C606.709 1297.42 609.231 1298.82 611.752 1300.22C620.435 1305.04 629.133 1309.74 638.082 1314.04C640.636 1315.38 640.636 1315.38 642.636 1317.38C644.074 1318.01 645.537 1318.59 647.01 1319.13C653.092 1321.49 658.829 1324.41 664.631 1327.38C671.699 1330.99 678.711 1334.52 686.134 1337.35C689.046 1338.55 691.819 1339.95 694.625 1341.38C699.01 1343.61 703.398 1345.55 707.989 1347.31C711.111 1348.57 714.137 1350 717.183 1351.44C721.532 1353.47 725.797 1355.18 730.379 1356.6C733.031 1357.52 735.514 1358.68 738.053 1359.87C742.266 1361.84 746.376 1363.26 750.843 1364.5C754.203 1365.56 757.424 1366.9 760.673 1368.25C766.77 1370.76 772.917 1372.78 779.269 1374.55C783.259 1375.66 787.175 1376.9 791.093 1378.25C798.663 1380.79 806.365 1382.78 814.1 1384.75C814.859 1384.94 815.618 1385.13 816.4 1385.34C829.044 1388.57 841.734 1391.45 854.517 1394.09C860.85 1395.4 867.122 1396.91 873.388 1398.51C877.066 1399.35 880.765 1399.79 884.507 1400.26C893.677 1401.43 902.641 1403.37 911.669 1405.34C919.926 1407.12 928.094 1408.66 936.491 1409.63C941.472 1410.21 946.41 1410.95 951.356 1411.77C952.102 1411.89 952.848 1412.02 953.617 1412.14C955.158 1412.4 956.699 1412.65 958.24 1412.91C974.641 1415.61 990.975 1417.68 1007.55 1419.02C1010.98 1419.31 1014.41 1419.64 1017.83 1419.99C1062.91 1424.51 1108.41 1423.21 1153.52 1419.82C1158.95 1419.43 1164.32 1419.24 1169.77 1419.41C1171.55 1419.57 1171.55 1419.57 1172.52 1418.36C1175.2 1418.21 1177.86 1418.1 1180.53 1418.01C1192.58 1417.49 1204.41 1415.74 1216.33 1413.99C1219.53 1413.53 1222.72 1413.07 1225.92 1412.61C1228.03 1412.31 1230.14 1412 1232.25 1411.7C1237.32 1410.96 1242.4 1410.24 1247.49 1409.59C1257.72 1408.27 1267.57 1406.64 1277.56 1404.05C1289.02 1401.23 1300.46 1399.14 1312.12 1397.37C1326.91 1395.11 1341.21 1392.03 1355.67 1388.12C1358.78 1387.29 1361.9 1386.55 1365.03 1385.82C1373.72 1383.77 1382.11 1380.92 1390.55 1378.04C1394.52 1376.68 1398.51 1375.43 1402.54 1374.25C1407.72 1372.68 1412.63 1370.72 1417.6 1368.58C1420.22 1367.48 1422.85 1366.5 1425.53 1365.56C1435.93 1361.85 1446.15 1357.43 1456.15 1352.75C1461.24 1350.39 1466.45 1348.44 1471.72 1346.52C1472.36 1346.28 1473 1346.05 1473.66 1345.81C1474.3 1345.58 1474.93 1345.34 1475.59 1345.11C1477.43 1344.39 1479.23 1343.54 1481.03 1342.7C1487.74 1340.11 1495.05 1341.03 1501.68 1343.65C1503.68 1344.67 1505.67 1345.73 1507.64 1346.83C1510.29 1348.28 1512.88 1349.42 1515.7 1350.5C1518.65 1351.64 1521.46 1352.85 1524.26 1354.31C1528.62 1356.55 1533.16 1358.23 1537.74 1359.95C1541.16 1361.26 1544.54 1362.65 1547.91 1364.07C1553.88 1366.57 1559.75 1368.91 1566 1370.63C1569.01 1371.55 1571.89 1372.7 1574.81 1373.87C1579.9 1375.86 1584.89 1377.33 1590.2 1378.55C1595.31 1379.84 1600.28 1381.53 1605.28 1383.19C1609.26 1384.41 1613.29 1385.09 1617.39 1385.8C1621.88 1386.64 1626.3 1387.75 1630.74 1388.83C1644.96 1392.29 1659.12 1394.89 1673.61 1396.95C1679.92 1397.89 1686.17 1399.12 1692.41 1400.37C1693.16 1400.51 1693.9 1400.66 1694.67 1400.81C1697.91 1401.47 1701.12 1402.2 1704.34 1402.93C1706.42 1403.39 1708.5 1403.86 1710.58 1404.32C1711.99 1404.64 1713.4 1404.96 1714.81 1405.28C1722.91 1407.13 1730.9 1408.66 1739.17 1409.6C1744.49 1410.21 1749.75 1411.06 1755.03 1411.99C1755.86 1412.13 1756.69 1412.28 1757.55 1412.43C1759.27 1412.73 1761 1413.03 1762.72 1413.34C1780.26 1416.39 1797.63 1418.7 1815.38 1420.04C1818.79 1420.31 1822.19 1420.64 1825.6 1420.99C1869.36 1425.46 1913.44 1424.45 1957.16 1420.15C1963.1 1419.57 1969.04 1419.06 1974.99 1418.64C1994.91 1417.21 2014.53 1414.65 2034.25 1411.49C2039.07 1410.72 2043.89 1409.98 2048.72 1409.28C2056.44 1408.14 2064.14 1406.91 2071.83 1405.54C2072.7 1405.39 2073.57 1405.24 2074.46 1405.08C2077.98 1404.46 2081.49 1403.83 2085.01 1403.19C2094.83 1401.41 2104.29 1399.76 2114.32 1400.37C2115.76 1404.37 2116.68 1408.12 2117.23 1412.33C2118.29 1419.64 2120.01 1426.71 2121.82 1433.86C2123.86 1441.91 2125.61 1449.84 2126.79 1458.05C2127.77 1464.14 2129.3 1470.11 2130.76 1476.11C2133.02 1485.53 2135.08 1494.94 2136.63 1504.51C2137.55 1509.64 2138.76 1514.68 2140.05 1519.73C2140.95 1523.35 2141.53 1526.61 2141.32 1530.35C2140.66 1530.35 2140 1530.35 2139.32 1530.35C2139.32 1531.01 2139.32 1531.67 2139.32 1532.35C2130.97 1534.53 2122.66 1536.55 2114.16 1538.06C2108.51 1539.08 2102.9 1540.3 2097.29 1541.54C2085.41 1544.16 2073.62 1546.37 2061.56 1547.92C2057.62 1548.44 2053.68 1549 2049.74 1549.56C2022.26 1553.48 2022.26 1553.48 2010.66 1554.65C2009.92 1554.73 2009.18 1554.81 2008.42 1554.89C2005.05 1555.2 2001.72 1555.36 1998.34 1555.3C1992.05 1555.25 1985.81 1555.95 1979.56 1556.51C1925.31 1561.33 1870.73 1561.8 1816.39 1558.34C1815.37 1558.28 1814.36 1558.22 1813.31 1558.15C1776.7 1555.87 1739.93 1553.05 1703.75 1546.73C1700.59 1546.21 1697.42 1545.93 1694.23 1545.66C1681.82 1544.38 1669.63 1541.33 1657.46 1538.65C1652.89 1537.65 1648.3 1536.73 1643.7 1535.85C1636.89 1534.5 1630.27 1532.74 1623.62 1530.78C1615 1528.26 1615 1528.26 1606.24 1526.31C1601.45 1525.41 1596.93 1524.01 1592.31 1522.47C1585.79 1520.35 1579.3 1518.49 1572.64 1516.88C1557.62 1513.23 1542.95 1508.68 1528.45 1503.35C1527.47 1503 1526.49 1502.65 1525.48 1502.3C1514.94 1498.54 1504.33 1494.72 1494.6 1489.14C1489.68 1487.34 1484.55 1490.32 1479.9 1492.1C1479.19 1492.37 1478.48 1492.64 1477.75 1492.91C1473.55 1494.51 1469.4 1496.2 1465.27 1497.98C1460.19 1500.13 1455.04 1501.76 1449.75 1503.32C1446.44 1504.36 1443.25 1505.57 1440.03 1506.85C1434.47 1509.04 1428.87 1510.73 1423.1 1512.31C1417.95 1513.78 1412.91 1515.54 1407.85 1517.3C1404.47 1518.35 1404.47 1518.35 1401.66 1518.8C1398.38 1519.36 1395.28 1520.17 1392.08 1521.09C1390.86 1521.43 1389.65 1521.77 1388.4 1522.13C1387.77 1522.31 1387.14 1522.49 1386.49 1522.67C1377.15 1525.32 1367.86 1527.85 1358.3 1529.58C1353.19 1530.61 1348.16 1531.92 1343.11 1533.22C1331.62 1536.16 1320.06 1538.51 1308.42 1540.77C1305.62 1541.32 1302.84 1541.9 1300.05 1542.51C1298.78 1542.78 1298.78 1542.78 1297.48 1543.06C1295.94 1543.4 1294.4 1543.74 1292.86 1544.09C1289.28 1544.87 1285.77 1545.45 1282.12 1545.77C1277.36 1546.2 1272.66 1546.9 1267.95 1547.65C1267.15 1547.77 1266.36 1547.9 1265.54 1548.03C1262.25 1548.55 1258.95 1549.08 1255.66 1549.61C1232.1 1553.41 1208.46 1555.67 1184.65 1557.22C1180.89 1557.47 1177.13 1557.72 1173.38 1557.98C1147.94 1559.69 1122.6 1560.55 1097.1 1560.53C1096.44 1560.53 1095.78 1560.53 1095.11 1560.53C1063.12 1560.52 1031.33 1559.3 999.478 1556.31C998.791 1556.24 998.104 1556.18 997.397 1556.11C995.565 1555.94 993.734 1555.76 991.903 1555.59C988.489 1555.29 988.489 1555.29 984.76 1555.37C981.564 1555.34 981.564 1555.34 979.565 1554.34C977.307 1554.18 975.046 1554.06 972.785 1553.96C962.465 1553.41 952.296 1551.92 942.073 1550.47C938.135 1549.91 934.197 1549.36 930.259 1548.82C929.309 1548.68 928.36 1548.55 927.382 1548.41C921.533 1547.6 915.682 1546.86 909.813 1546.21C896.999 1544.77 884.394 1542.35 871.75 1539.86C870.235 1539.56 868.72 1539.26 867.206 1538.97C866.467 1538.82 865.728 1538.68 864.966 1538.53C860.439 1537.66 855.918 1536.95 851.346 1536.35C844.3 1535.39 837.528 1533.72 830.659 1531.91C823.31 1530.01 816.008 1528.13 808.538 1526.78C801.985 1525.56 795.768 1523.61 789.443 1521.54C785.148 1520.14 780.89 1518.86 776.482 1517.85C770.768 1516.51 765.326 1514.56 759.835 1512.51C756.287 1511.2 752.831 1510.13 749.125 1509.37C744.567 1508.41 740.417 1506.86 736.116 1505.1C730.2 1502.73 724.27 1500.49 718.245 1498.41C711.803 1496.18 705.453 1493.76 699.124 1491.23C698.311 1490.9 697.499 1490.58 696.662 1490.24C691.956 1488.34 687.312 1486.34 682.702 1484.22C680.539 1483.32 678.388 1482.66 676.129 1482.04C670.721 1480.5 665.624 1478.36 660.446 1476.19C655.103 1473.95 649.729 1471.81 644.323 1469.73C621.922 1461.07 600.094 1451.19 578.661 1440.37C576.671 1439.37 574.678 1438.38 572.682 1437.39C555.045 1428.65 537.537 1419.51 520.662 1409.37C519.025 1408.41 517.388 1407.46 515.749 1406.51C497.852 1396.09 497.852 1396.09 489.789 1389.95C486.882 1387.78 483.857 1386.09 480.67 1384.37C477.304 1382.42 474.164 1380.32 471.047 1378C464.944 1373.51 458.687 1369.26 452.402 1365.03C447.945 1362.01 443.77 1358.87 439.679 1355.38C438.751 1354.76 437.823 1354.14 436.867 1353.5C433.64 1351.35 430.63 1349.04 427.584 1346.64C422.989 1343.06 418.348 1339.53 413.712 1336C410.002 1333.17 406.324 1330.3 402.686 1327.38C401.102 1326.15 399.517 1324.91 397.931 1323.68C391.974 1319.03 386.131 1314.28 380.388 1309.38C376.921 1306.42 373.419 1303.51 369.881 1300.63C365.983 1297.46 362.173 1294.21 358.411 1290.88C356.935 1289.59 355.413 1288.36 353.884 1287.14C352.006 1285.63 350.393 1284.08 348.698 1282.39C347.729 1281.58 346.76 1280.78 345.761 1279.95C343.256 1277.85 341.004 1275.69 338.7 1273.39C337.896 1272.75 337.092 1272.11 336.263 1271.45C333.529 1269.25 331.157 1266.9 328.702 1264.39C327.204 1262.89 325.704 1261.39 324.203 1259.89C321.857 1257.55 319.519 1255.2 317.205 1252.83C314.933 1250.62 312.596 1248.54 310.206 1246.46C306.633 1243.31 303.676 1240.11 300.708 1236.4C298.014 1233.56 295.231 1230.99 292.21 1228.52C289.197 1225.98 287.08 1223.31 284.891 1220.06C283.107 1217.55 280.94 1215.52 278.713 1213.4C275.446 1210.21 272.542 1206.98 269.715 1203.4C265.342 1198.28 265.342 1198.28 260.716 1193.4C260.716 1192.41 260.716 1191.42 260.716 1190.4C260.118 1190.15 259.52 1189.89 258.904 1189.63C256.485 1188.27 255.375 1187.02 253.73 1184.81C253.192 1184.09 252.654 1183.38 252.1 1182.64C251.261 1181.5 251.261 1181.5 250.406 1180.34C249.241 1178.79 248.076 1177.23 246.911 1175.68C246.357 1174.93 245.803 1174.19 245.232 1173.42C243.473 1171.08 241.668 1168.77 239.846 1166.47C236.923 1162.73 234.18 1158.88 231.504 1154.95C230.284 1153.21 229.01 1151.5 227.692 1149.84C222.148 1142.65 222.148 1142.65 222.037 1138.29C223.005 1134.13 225.952 1132.48 229.348 1130.16C231.455 1128.88 233.578 1127.63 235.722 1126.41C236.382 1126.04 237.041 1125.66 237.721 1125.27C238.526 1124.81 238.526 1124.81 239.346 1124.35C242.983 1122.26 246.331 1119.92 249.75 1117.5C253.38 1114.95 257.04 1112.46 260.716 1109.98C261.376 1109.53 262.035 1109.08 262.714 1108.62C267.484 1105.42 267.484 1105.42 269.715 1105.42C269.715 1104.76 269.715 1104.1 269.715 1103.42C271.374 1102.08 271.374 1102.08 273.776 1100.48C278.427 1097.32 282.991 1094.06 287.523 1090.73C288.474 1090.04 288.474 1090.04 289.443 1089.33C292.161 1087.33 294.838 1085.32 297.47 1083.21C299.708 1081.42 299.708 1081.42 302.708 1079.48C305.788 1077.5 305.788 1077.5 308.331 1074.8C310.528 1072.6 312.007 1071.77 314.705 1070.42C316.393 1068.78 318.058 1067.11 319.704 1065.42C324.534 1061.28 327.371 1059.69 333.701 1061.42Z" fill="white"/>
<path d="M1486.88 1636.9C1490.39 1636.89 1493.9 1636.84 1497.41 1636.79C1525.72 1636.59 1554.47 1642.45 1580.24 1654.32C1581.84 1654.94 1583.44 1655.54 1585.05 1656.14C1589.84 1658.03 1594.37 1660.37 1598.92 1662.76C1599.64 1663.13 1600.35 1663.5 1601.08 1663.89C1605.76 1666.38 1609.96 1669.2 1614.23 1672.32C1615.96 1673.3 1617.7 1674.27 1619.43 1675.24C1630.01 1681.58 1640.66 1690.5 1649.23 1699.32C1649.23 1699.98 1649.23 1700.64 1649.23 1701.32C1649.78 1701.54 1650.34 1701.77 1650.91 1702C1653.89 1703.69 1655.94 1705.78 1658.22 1708.31C1658.22 1708.97 1658.22 1709.63 1658.22 1710.31C1658.77 1710.5 1659.32 1710.69 1659.88 1710.89C1663.32 1712.98 1665.32 1715.94 1667.72 1719.13C1668.67 1720.36 1669.62 1721.6 1670.56 1722.83C1671.02 1723.43 1671.47 1724.02 1671.93 1724.63C1673.08 1726.13 1674.26 1727.61 1675.44 1729.08C1677.55 1731.72 1679.36 1734.49 1681.22 1737.31C1682 1738.36 1682.79 1739.41 1683.59 1740.5C1686.37 1744.35 1688.57 1748.47 1690.79 1752.66C1691.75 1754.45 1692.76 1756.21 1693.81 1757.95C1695.21 1760.29 1696.26 1762.65 1697.29 1765.16C1697.95 1766.7 1698.67 1768.2 1699.42 1769.69C1708.28 1787.56 1713.5 1806.45 1716.71 1826.04C1716.84 1826.79 1716.96 1827.55 1717.09 1828.32C1723.39 1867.17 1720.08 1907.36 1706.21 1944.27C1705.75 1945.56 1705.29 1946.85 1704.83 1948.14C1702.75 1953.81 1700.39 1959.02 1697.33 1964.23C1696.24 1966.22 1695.5 1968.13 1694.78 1970.27C1693.37 1974.29 1691.18 1977.5 1688.76 1980.98C1687.27 1983.19 1685.98 1985.43 1684.72 1987.77C1681.19 1994.24 1677.46 2000.07 1672.22 2005.26C1670.97 2006.79 1669.74 2008.33 1668.53 2009.89C1663.19 2016.64 1657.57 2023.42 1651.23 2029.26C1650.57 2029.26 1649.91 2029.26 1649.23 2029.26C1648.98 2029.84 1648.74 2030.42 1648.48 2031.01C1644.43 2038.26 1635.65 2043.57 1629.1 2048.51C1628.45 2049 1627.79 2049.5 1627.12 2050.01C1622.63 2053.34 1618.01 2056.35 1613.23 2059.26C1612.43 2059.76 1611.62 2060.26 1610.79 2060.78C1605.77 2063.84 1600.66 2066.71 1595.49 2069.5C1594.55 2070.02 1594.55 2070.02 1593.59 2070.54C1589.88 2072.52 1586.23 2073.95 1582.24 2075.25C1580.97 2075.81 1579.71 2076.37 1578.45 2076.95C1569.13 2081.2 1559.78 2084.46 1549.87 2087.06C1548.84 2087.34 1547.8 2087.62 1546.73 2087.9C1529.22 2092.31 1511.84 2093.75 1493.84 2093.64C1490.7 2093.63 1487.55 2093.64 1484.41 2093.66C1466.03 2093.68 1448.75 2091.36 1431.02 2086.5C1430.07 2086.24 1430.07 2086.24 1429.09 2085.98C1419.01 2083.25 1409.66 2079.81 1400.28 2075.25C1398.64 2074.61 1396.99 2073.98 1395.34 2073.38C1376.31 2065.89 1358.38 2053.94 1343.29 2040.26C1342.42 2039.5 1341.55 2038.74 1340.65 2037.96C1339.75 2037.17 1338.84 2036.38 1337.92 2035.57C1337.08 2034.85 1336.25 2034.12 1335.39 2033.37C1333.29 2031.26 1333.29 2031.26 1332.25 2029.12C1331 2026.7 1329.73 2026.41 1327.29 2025.26C1320.45 2019.34 1314.91 2012.47 1309.52 2005.25C1308.12 2003.37 1306.68 2001.51 1305.2 1999.69C1303.33 1997.3 1301.82 1994.89 1300.3 1992.27C1299.24 1990.62 1298.18 1988.97 1297.11 1987.33C1280.63 1961.31 1268.99 1932.34 1264.81 1901.72C1264.68 1900.79 1264.55 1899.87 1264.41 1898.91C1261.54 1877.93 1261.12 1856.61 1264 1835.6C1264.32 1833.2 1264.61 1830.79 1264.9 1828.38C1267.61 1807.03 1274.4 1785.44 1284.3 1766.3C1284.7 1765.49 1285.1 1764.67 1285.51 1763.83C1287.95 1758.82 1290.57 1753.92 1293.3 1749.06C1293.94 1747.92 1294.58 1746.78 1295.24 1745.61C1296.74 1743.2 1298.15 1741.21 1299.96 1739.07C1302.39 1736.44 1302.39 1736.44 1303.74 1733.37C1305.35 1730.21 1307.15 1727.98 1309.5 1725.35C1311.62 1722.94 1313.61 1720.44 1315.61 1717.94C1319.86 1712.72 1324.45 1707.99 1329.29 1703.32C1330.16 1702.45 1331.03 1701.58 1331.92 1700.69C1333.09 1699.52 1333.09 1699.52 1334.29 1698.32C1334.82 1697.76 1335.35 1697.21 1335.9 1696.64C1339.3 1693.13 1342.7 1690.18 1346.73 1687.44C1348.46 1686.26 1348.46 1686.26 1350.35 1684.26C1352.78 1681.83 1355.4 1680.17 1358.29 1678.32C1359.64 1677.4 1361 1676.49 1362.35 1675.57C1376.34 1666.28 1390.64 1658.51 1406.28 1652.32C1407.36 1651.86 1408.44 1651.4 1409.56 1650.93C1418.5 1647.31 1427.58 1644.85 1436.96 1642.58C1438.17 1642.28 1439.38 1641.99 1440.63 1641.69C1444.17 1640.85 1447.71 1640.08 1451.27 1639.33C1452.21 1639.12 1453.16 1638.91 1454.13 1638.69C1464.93 1636.66 1475.94 1636.92 1486.88 1636.9Z" fill="#0B96A1"/>
<path d="M2646.18 1063.61C2658.49 1066.28 2668.9 1075.27 2678.98 1082.42C2681.41 1084.07 2683.85 1085.66 2686.32 1087.23C2687.1 1087.73 2687.87 1088.22 2688.67 1088.73C2690.24 1089.72 2691.81 1090.71 2693.38 1091.69C2694.09 1092.14 2694.81 1092.59 2695.55 1093.06C2696.2 1093.47 2696.84 1093.87 2697.51 1094.29C2697.98 1094.66 2698.44 1095.03 2698.91 1095.42C2698.91 1096.08 2698.91 1096.74 2698.91 1097.42C2700.21 1097.78 2700.21 1097.78 2701.52 1098.16C2705.23 1099.53 2707.95 1101.31 2711.16 1103.6C2711.73 1104 2712.29 1104.4 2712.87 1104.82C2714.02 1105.63 2715.16 1106.44 2716.3 1107.26C2718.57 1108.89 2720.87 1110.5 2723.16 1112.1C2723.96 1112.67 2724.77 1113.23 2725.6 1113.81C2727.75 1115.31 2729.92 1116.77 2732.09 1118.23C2732.81 1118.7 2733.53 1119.18 2734.27 1119.68C2736.41 1121.09 2738.57 1122.48 2740.73 1123.87C2742.1 1124.76 2743.47 1125.65 2744.84 1126.54C2745.51 1126.96 2746.17 1127.38 2746.85 1127.81C2750.26 1130.04 2752.31 1131.66 2753.9 1135.41C2754.89 1135.74 2755.88 1136.07 2756.9 1136.41C2758.57 1142.97 2758.57 1142.97 2756.81 1146.77C2753.92 1151.16 2750.62 1154.7 2746.9 1158.41C2745.44 1160.12 2744.01 1161.84 2742.59 1163.59C2741.42 1165.04 2741.42 1165.04 2740.23 1166.51C2738.12 1169.14 2736.01 1171.77 2733.91 1174.4C2732.57 1176.07 2731.24 1177.74 2729.91 1179.4C2728.84 1180.73 2728.84 1180.73 2727.76 1182.09C2723.08 1187.88 2718.2 1193.41 2713.15 1198.87C2711.23 1201.04 2709.54 1203.2 2707.91 1205.59C2707.25 1206.51 2706.59 1207.44 2705.91 1208.4C2705.25 1208.4 2704.59 1208.4 2703.91 1208.4C2703.69 1208.94 2703.47 1209.48 2703.24 1210.04C2701.49 1213.15 2699.16 1215.58 2696.73 1218.15C2695.73 1219.22 2694.72 1220.29 2693.72 1221.37C2693.24 1221.89 2692.75 1222.41 2692.25 1222.94C2690.56 1224.79 2688.92 1226.68 2687.29 1228.58C2684.07 1232.3 2680.6 1235.73 2677.1 1239.18C2675.14 1241.17 2673.3 1243.21 2671.48 1245.33C2665.51 1252.27 2658.94 1258.53 2652.04 1264.53C2647.84 1268.23 2643.81 1272.11 2639.75 1275.96C2628.7 1286.39 2628.7 1286.39 2625.93 1286.39C2625.72 1286.96 2625.52 1287.54 2625.3 1288.14C2623.43 1291.21 2620.94 1292.44 2617.93 1294.38C2617.09 1295.25 2616.24 1296.12 2615.37 1297.01C2612.93 1299.38 2612.93 1299.38 2610.25 1300.45C2607.79 1301.14 2607.79 1301.14 2607.02 1303.25C2605.74 1305.77 2604.47 1306.74 2602.18 1308.38C2597.95 1311.55 2593.93 1314.91 2589.94 1318.38C2585.33 1322.36 2580.68 1326.23 2575.83 1329.92C2574.07 1331.28 2572.38 1332.68 2570.69 1334.13C2567.94 1336.38 2567.94 1336.38 2565.38 1337.88C2562.79 1339.34 2562.79 1339.34 2560.51 1341.81C2557.82 1344.5 2555.11 1346.28 2551.95 1348.38C2550.67 1349.3 2549.41 1350.23 2548.15 1351.17C2547.5 1351.66 2546.85 1352.14 2546.18 1352.64C2544.84 1353.64 2543.5 1354.65 2542.16 1355.66C2537.17 1359.37 2537.17 1359.37 2534.95 1359.37C2534.95 1360.03 2534.95 1360.69 2534.95 1361.37C2528.2 1365.37 2528.2 1365.37 2525.95 1365.37C2525.95 1366.03 2525.95 1366.69 2525.95 1367.37C2524.46 1368.61 2524.46 1368.61 2522.37 1369.98C2521.6 1370.49 2520.84 1370.99 2520.06 1371.51C2519.24 1372.04 2518.42 1372.57 2517.58 1373.12C2516.75 1373.66 2515.93 1374.21 2515.07 1374.77C2510.15 1377.99 2505.18 1381.11 2500.1 1384.09C2497.89 1385.41 2495.77 1386.81 2493.65 1388.24C2484.08 1394.68 2474.12 1400.47 2464.13 1406.22C2459.1 1409.11 2454.11 1412.05 2449.15 1415.05C2439.37 1420.96 2429.45 1426.62 2419.38 1432.04C2417.76 1432.93 2416.17 1433.86 2414.6 1434.84C2411.49 1436.64 2408.28 1437.96 2404.98 1439.36C2402.41 1440.57 2399.88 1441.84 2397.35 1443.11C2396.66 1443.46 2395.97 1443.8 2395.25 1444.16C2390.82 1446.39 2386.45 1448.72 2382.11 1451.11C2377.62 1453.55 2373.15 1455.59 2368.38 1457.4C2365.83 1458.42 2363.43 1459.6 2360.99 1460.86C2356.98 1462.9 2352.94 1464.63 2348.75 1466.26C2345.51 1467.55 2342.31 1468.91 2339.12 1470.29C2334.68 1472.2 2330.25 1474.1 2325.81 1475.98C2324.52 1476.52 2324.52 1476.52 2323.2 1477.08C2320.4 1478.19 2317.59 1479.23 2314.75 1480.25C2311.19 1481.54 2307.66 1482.87 2304.16 1484.29C2288.55 1490.62 2272.65 1495.94 2256.65 1501.17C2252.06 1502.67 2247.48 1504.2 2242.9 1505.74C2235.83 1508.11 2228.76 1510.41 2221.58 1512.41C2220.27 1512.78 2220.27 1512.78 2218.93 1513.16C2211.7 1515.19 2204.45 1517.11 2197.18 1518.99C2193.3 1520 2189.42 1521.05 2185.55 1522.11C2155.7 1530.25 2155.7 1530.25 2143.03 1531.34C2143.69 1531.01 2144.35 1530.68 2145.03 1530.34C2144.83 1529.5 2144.64 1528.65 2144.44 1527.77C2138 1499.8 2138 1499.8 2135.85 1486.66C2134.65 1479.87 2132.88 1473.2 2131.19 1466.52C2129.9 1461.36 2128.82 1456.26 2128.07 1451C2127.03 1443.83 2125.31 1436.88 2123.54 1429.86C2121.44 1421.6 2119.61 1413.44 2118.45 1404.99C2118.1 1402.27 2118.1 1402.27 2117.04 1399.37C2142.29 1391.48 2142.29 1391.48 2154.42 1388.35C2159.54 1386.96 2164.59 1385.34 2169.64 1383.72C2175.27 1381.92 2180.92 1380.18 2186.58 1378.5C2194.61 1376.1 2202.63 1373.69 2210.64 1371.25C2211.72 1370.92 2212.8 1370.6 2213.91 1370.26C2219.65 1368.51 2225.24 1366.59 2230.77 1364.26C2233.15 1363.32 2235.55 1362.58 2238.01 1361.87C2245.09 1359.82 2251.78 1356.89 2258.57 1354.05C2262.74 1352.31 2266.92 1350.59 2271.11 1348.88C2272.11 1348.46 2273.12 1348.05 2274.15 1347.63C2276.19 1346.79 2278.23 1345.95 2280.27 1345.13C2285.7 1342.88 2290.82 1340.44 2295.91 1337.5C2298.55 1336.08 2301.25 1335.09 2304.07 1334.1C2307.33 1332.88 2310.4 1331.28 2313.5 1329.69C2314.9 1328.98 2316.31 1328.26 2317.71 1327.55C2318.42 1327.19 2319.13 1326.83 2319.87 1326.46C2321.91 1325.42 2323.97 1324.4 2326.02 1323.4C2333.62 1319.66 2341.07 1315.75 2348.41 1311.53C2352.18 1309.37 2355.99 1307.37 2359.88 1305.45C2363.8 1303.47 2367.64 1301.32 2371.48 1299.2C2372.35 1298.72 2373.22 1298.24 2374.12 1297.74C2380.27 1294.35 2386.4 1290.92 2392.52 1287.46C2396.29 1285.32 2400.09 1283.24 2403.91 1281.2C2408.08 1278.95 2411.96 1276.43 2415.86 1273.75C2417.85 1272.47 2419.83 1271.41 2421.97 1270.39C2425.67 1268.61 2428.98 1266.47 2432.36 1264.15C2434.89 1262.44 2437.46 1260.8 2440.03 1259.16C2446.87 1254.82 2453.46 1250.23 2459.96 1245.39C2461.8 1244.06 2463.63 1242.72 2465.46 1241.39C2466.37 1240.73 2467.27 1240.08 2468.21 1239.4C2470.06 1238.05 2471.92 1236.7 2473.78 1235.36C2486.64 1226.06 2498.88 1216.09 2510.88 1205.72C2514.87 1202.29 2518.95 1199.04 2523.13 1195.85C2525.6 1193.88 2527.78 1191.7 2529.95 1189.4C2532.78 1186.42 2535.62 1183.86 2538.95 1181.47C2541.53 1179.58 2543.64 1177.77 2545.63 1175.28C2547.88 1172.49 2550.12 1170.59 2552.95 1168.41C2554.63 1166.76 2556.3 1165.09 2557.94 1163.41C2559.61 1161.74 2561.28 1160.07 2562.94 1158.41C2563.77 1157.58 2564.59 1156.76 2565.44 1155.91C2572.94 1148.41 2572.94 1148.41 2575.52 1145.87C2578.31 1143.03 2580.84 1140.04 2583.39 1136.98C2583.9 1136.47 2584.41 1135.95 2584.94 1135.41C2585.6 1135.41 2586.26 1135.41 2586.94 1135.41C2587.19 1134.85 2587.43 1134.3 2587.69 1133.72C2589.17 1130.99 2590.87 1128.74 2592.94 1126.41C2593.6 1126.41 2594.26 1126.41 2594.94 1126.41C2595.18 1125.85 2595.43 1125.28 2595.68 1124.7C2597.16 1122 2598.96 1120.04 2601.06 1117.79C2608.25 1109.94 2614.64 1101.55 2620.95 1092.98C2622.52 1090.94 2624.1 1089.21 2625.93 1087.42C2626.86 1086.02 2627.79 1084.62 2628.7 1083.22C2630.71 1080.28 2632.92 1077.52 2635.14 1074.75C2636.95 1072.46 2636.95 1072.46 2638.47 1070.07C2642.06 1064.64 2642.06 1064.64 2646.18 1063.61Z" fill="#F6832B"/>
<path d="M1754.68 1129.41C1761.89 1130.69 1767.98 1135.89 1773.8 1140.04C1777.28 1142.51 1780.69 1144.5 1784.54 1146.32C1790.12 1149.17 1795.31 1152.82 1800.5 1156.31C1804.92 1159.23 1809.42 1162 1813.92 1164.78C1817.29 1166.87 1820.52 1169.01 1823.67 1171.41C1824.56 1171.84 1825.44 1172.27 1826.36 1172.72C1832.49 1175.84 1838 1179.93 1843.6 1183.9C1846.94 1186.26 1850.32 1188.41 1853.85 1190.46C1864.25 1196.58 1864.25 1196.58 1866.66 1201.4C1868.12 1212.25 1863.36 1219.27 1857.1 1227.71C1855.63 1229.61 1854.15 1231.51 1852.66 1233.39C1851.98 1234.26 1851.3 1235.12 1850.6 1236.01C1848.36 1238.77 1846.01 1241.4 1843.64 1244.04C1841.96 1246.04 1840.42 1248.08 1838.87 1250.18C1835.76 1254.37 1832.33 1258.13 1828.73 1261.89C1827.48 1263.21 1826.24 1264.52 1825 1265.84C1824.41 1266.46 1823.83 1267.08 1823.23 1267.72C1821.43 1269.65 1819.69 1271.63 1817.98 1273.64C1812.7 1279.79 1806.75 1285.35 1800.98 1291.04C1798.59 1293.4 1798.59 1293.4 1796.36 1296.26C1793.79 1299.42 1790.81 1301.96 1787.72 1304.6C1785.78 1306.29 1783.98 1308.05 1782.18 1309.88C1779.22 1312.88 1776.13 1315.66 1772.94 1318.4C1769.21 1321.66 1765.62 1325.06 1762 1328.44C1759.68 1330.38 1759.68 1330.38 1757.68 1330.38C1757.48 1330.96 1757.27 1331.53 1757.06 1332.13C1755.18 1335.2 1752.69 1336.43 1749.68 1338.38C1748 1340.02 1746.33 1341.69 1744.69 1343.38C1741.07 1346.38 1741.07 1346.38 1738.69 1346.38C1738.43 1346.98 1738.17 1347.58 1737.91 1348.19C1736.57 1350.58 1735.37 1351.67 1733.2 1353.29C1732.5 1353.82 1731.8 1354.35 1731.08 1354.89C1730.33 1355.44 1729.58 1355.99 1728.81 1356.56C1728.05 1357.13 1727.29 1357.7 1726.5 1358.29C1724.96 1359.45 1723.42 1360.6 1721.87 1361.75C1719.93 1363.19 1718 1364.65 1716.07 1366.12C1711.71 1369.43 1707.42 1372.6 1702.69 1375.37C1701.02 1376.43 1699.36 1377.49 1697.7 1378.56C1695.7 1379.83 1693.7 1381.1 1691.7 1382.37C1690.61 1383.06 1689.53 1383.75 1688.41 1384.46C1682.32 1388.29 1676.37 1391.66 1669.7 1394.37C1669.7 1395.03 1669.7 1395.69 1669.7 1396.37C1654.53 1395.36 1640.07 1391.83 1625.35 1388.23C1621.71 1387.37 1618.06 1386.59 1614.4 1385.84C1608.77 1384.65 1603.36 1383.14 1597.9 1381.31C1593.33 1379.78 1588.82 1378.35 1584.1 1377.37C1580.01 1376.5 1576.33 1375.13 1572.47 1373.5C1567.83 1371.56 1563.26 1369.87 1558.41 1368.5C1551.28 1366.4 1544.66 1363.34 1537.91 1360.26C1534.68 1358.79 1531.42 1357.41 1528.11 1356.12C1524.55 1354.74 1521.19 1353.13 1517.8 1351.38C1514.68 1349.87 1511.46 1348.64 1508.23 1347.4C1505.74 1346.38 1505.74 1346.38 1502.84 1344.82C1496.29 1341.77 1489.07 1341.35 1482.17 1343.48C1478.64 1345.02 1475.2 1346.69 1471.74 1348.38C1469.57 1349.23 1467.38 1350.07 1465.18 1350.88C1460.78 1352.54 1456.51 1354.37 1452.25 1356.37C1444.24 1360.14 1436.02 1363.21 1427.69 1366.19C1424.16 1367.45 1420.68 1368.8 1417.22 1370.22C1407.84 1374.07 1398.55 1377.5 1388.78 1380.22C1384.82 1381.32 1380.96 1382.64 1377.08 1383.99C1371.37 1385.92 1365.75 1387.33 1359.84 1388.49C1356.7 1389.14 1353.61 1389.92 1350.5 1390.74C1339.44 1393.68 1328.39 1396.17 1317.09 1397.99C1315.94 1398.19 1314.78 1398.39 1313.6 1398.6C1305.54 1399.81 1305.54 1399.81 1301.94 1397.7C1301.23 1396.93 1300.51 1396.16 1299.78 1395.37C1297.5 1394.01 1295.23 1392.71 1292.91 1391.43C1289.11 1389.31 1285.35 1387.2 1281.85 1384.62C1279.2 1382.68 1276.54 1381.08 1273.69 1379.48C1270.55 1377.65 1267.55 1375.64 1264.54 1373.62C1263.88 1373.18 1263.23 1372.74 1262.55 1372.29C1256.86 1368.46 1251.31 1364.46 1245.79 1360.37C1244.51 1359.44 1243.23 1358.51 1241.96 1357.57C1240.61 1356.59 1239.26 1355.61 1237.92 1354.62C1236.97 1353.93 1236.97 1353.93 1236.01 1353.23C1231.13 1349.66 1226.42 1345.98 1221.92 1341.94C1219.4 1339.72 1216.87 1337.66 1214.11 1335.75C1210.99 1333.59 1208.42 1331.14 1205.8 1328.38C1203.02 1325.54 1200.18 1322.79 1197.25 1320.12C1196.63 1319.56 1196.02 1319 1195.39 1318.42C1194.1 1317.25 1192.82 1316.09 1191.53 1314.93C1190.93 1314.38 1190.32 1313.82 1189.69 1313.24C1189.13 1312.74 1188.58 1312.24 1188.01 1311.72C1186.8 1310.38 1186.8 1310.38 1186.8 1308.38C1186.21 1308.13 1185.63 1307.88 1185.02 1307.62C1182.54 1306.24 1181.18 1304.8 1179.37 1302.63C1178.77 1301.92 1178.17 1301.22 1177.56 1300.49C1176.69 1299.45 1176.69 1299.45 1175.81 1298.38C1175.29 1297.79 1174.77 1297.2 1174.24 1296.6C1170.81 1292.63 1170.81 1292.63 1170.81 1290.39C1170.2 1290.12 1169.6 1289.86 1168.97 1289.59C1166.63 1288.29 1165.7 1287.25 1164.18 1285.07C1161.42 1281.22 1158.58 1277.45 1155.68 1273.7C1155.06 1272.88 1155.06 1272.88 1154.41 1272.05C1152.51 1269.57 1150.59 1267.12 1148.62 1264.7C1146.79 1262.36 1145.37 1259.92 1143.93 1257.33C1140.6 1251.55 1136.67 1246.18 1132.69 1240.83C1129.96 1237.12 1127.73 1233.52 1125.8 1229.35C1124.66 1227.09 1123.31 1225.06 1121.88 1222.96C1118.89 1218.58 1116.32 1214.07 1113.82 1209.4C1113.4 1208.68 1112.98 1207.97 1112.55 1207.23C1111.97 1206.2 1111.97 1206.2 1111.38 1205.15C1111.03 1204.55 1110.68 1203.94 1110.32 1203.32C1109.57 1200.43 1110.4 1198.97 1111.82 1196.4C1113.74 1194.74 1113.74 1194.74 1116.01 1193.34C1116.82 1192.83 1117.62 1192.33 1118.46 1191.8C1120.94 1190.33 1123.44 1188.86 1125.96 1187.45C1133.35 1183.28 1140.53 1178.73 1147.73 1174.24C1150.7 1172.47 1153.72 1170.94 1156.81 1169.41C1158.44 1168.44 1160.07 1167.47 1161.68 1166.47C1165.29 1164.28 1168.91 1162.3 1172.7 1160.45C1180.12 1156.77 1187.27 1152.58 1194.45 1148.45C1199.57 1145.52 1204.75 1142.72 1209.96 1139.95C1212.8 1138.46 1212.8 1138.46 1215.42 1136.71C1217.8 1135.41 1217.8 1135.41 1221.8 1135.41C1221.8 1134.75 1221.8 1134.09 1221.8 1133.41C1225.68 1132.3 1227.27 1132.14 1230.92 1134.04C1233.69 1136.33 1235.8 1138.42 1237.79 1141.41C1237.79 1142.4 1237.79 1143.39 1237.79 1144.41C1238.36 1144.62 1238.92 1144.83 1239.51 1145.05C1242.62 1146.9 1244.2 1149.25 1246.35 1152.16C1247.24 1153.34 1248.12 1154.51 1249 1155.69C1249.46 1156.3 1249.91 1156.91 1250.38 1157.54C1252.7 1160.62 1255.09 1163.63 1257.48 1166.66C1258.4 1167.83 1259.32 1169 1260.24 1170.17C1260.67 1170.72 1261.11 1171.27 1261.56 1171.84C1263.8 1174.69 1266.03 1177.57 1268.25 1180.44C1270.08 1182.78 1271.93 1185.09 1273.78 1187.4C1274.44 1188.22 1275.09 1189.03 1275.76 1189.87C1287.77 1204.76 1300.81 1218.46 1315.78 1230.4C1316.97 1231.41 1318.16 1232.43 1319.34 1233.46C1327.08 1240.25 1327.08 1240.25 1335.58 1246.01C1336.3 1246.46 1337.03 1246.92 1337.77 1247.39C1337.77 1248.05 1337.77 1248.71 1337.77 1249.39C1338.29 1249.62 1338.82 1249.86 1339.35 1250.1C1342.59 1251.83 1345.49 1253.98 1348.46 1256.14C1352.55 1259.1 1356.65 1262.01 1360.89 1264.76C1363.89 1266.73 1366.23 1268.85 1368.76 1271.39C1370.47 1272.39 1372.18 1273.38 1373.91 1274.32C1375.78 1275.4 1377.47 1276.6 1379.2 1277.89C1382.24 1280.11 1385.36 1281.74 1388.74 1283.37C1391.45 1284.73 1393.95 1286.34 1396.51 1287.97C1403.86 1292.59 1411.45 1296.79 1419.09 1300.91C1422.63 1302.87 1426.09 1304.98 1429.55 1307.08C1431.25 1308.08 1432.99 1309 1434.75 1309.88C1437.41 1311.21 1439.81 1312.67 1442.31 1314.26C1447.24 1317.26 1452.31 1319.25 1457.71 1321.23C1460.87 1322.43 1463.8 1323.85 1466.79 1325.42C1469.86 1326.93 1473.06 1328.08 1476.25 1329.3C1478.73 1330.37 1480.84 1331.67 1483.12 1333.13C1488.62 1336.2 1493.58 1336.67 1499.74 1335.38C1504.4 1333.51 1508.66 1330.93 1512.96 1328.36C1515.78 1326.8 1518.77 1325.63 1521.73 1324.38C1523.44 1323.42 1525.13 1322.42 1526.79 1321.38C1529.4 1319.78 1531.92 1318.29 1534.67 1316.94C1539.57 1314.44 1544.11 1311.37 1548.73 1308.38C1550.41 1307.3 1552.1 1306.22 1553.78 1305.13C1555.56 1304 1557.33 1302.85 1559.1 1301.71C1561.52 1300.15 1563.95 1298.6 1566.38 1297.06C1572.52 1293.14 1578.57 1289.14 1584.51 1284.92C1587.05 1283.15 1589.66 1281.53 1592.3 1279.92C1594.39 1278.6 1596.43 1277.24 1598.48 1275.86C1599.49 1275.17 1599.49 1275.17 1600.52 1274.48C1601.89 1273.55 1603.25 1272.62 1604.61 1271.69C1609.49 1268.39 1609.49 1268.39 1611.71 1268.39C1611.71 1267.73 1611.71 1267.07 1611.71 1266.39C1618.46 1262.39 1618.46 1262.39 1620.71 1262.39C1620.71 1261.73 1620.71 1261.07 1620.71 1260.39C1622.68 1258.89 1624.65 1257.5 1626.71 1256.14C1627.91 1255.33 1629.11 1254.52 1630.31 1253.71C1630.89 1253.31 1631.48 1252.92 1632.08 1252.51C1634.79 1250.65 1637.39 1248.65 1640 1246.66C1641.59 1245.48 1643.24 1244.4 1644.89 1243.33C1647.81 1241.44 1647.81 1241.44 1650.33 1238.77C1652.7 1236.39 1652.7 1236.39 1654.77 1235.39C1657.5 1233.98 1658.83 1231.8 1660.7 1229.4C1664.22 1226.4 1664.22 1226.4 1666.7 1226.4C1666.94 1225.82 1667.18 1225.24 1667.42 1224.65C1668.97 1221.92 1670.76 1220.37 1673.14 1218.33C1680.79 1211.62 1688.01 1204.51 1694.62 1196.76C1697.57 1193.4 1700.64 1190.16 1703.69 1186.9C1713.4 1176.54 1713.4 1176.54 1722.14 1165.36C1723.69 1163.41 1723.69 1163.41 1725.96 1161.16C1729.29 1157.8 1732.22 1154.21 1735.19 1150.53C1735.74 1149.85 1736.3 1149.17 1736.87 1148.47C1739.53 1145.18 1742.08 1141.89 1744.47 1138.4C1745.56 1136.92 1745.56 1136.92 1746.69 1135.41C1747.34 1135.41 1748 1135.41 1748.68 1135.41C1748.81 1134.79 1748.93 1134.17 1749.06 1133.54C1750.09 1130.02 1751.03 1129.41 1754.68 1129.41Z" fill="#73C5DA"/>
<path d="M185.147 889.081C187.396 889.077 189.644 889.041 191.892 889.003C204.105 888.906 214.717 891.439 225.661 897.013C226.319 897.344 226.977 897.675 227.655 898.015C235.745 902.265 243.257 907.986 249.718 914.448C249.718 915.437 249.718 916.427 249.718 917.447C250.321 917.713 250.924 917.978 251.546 918.252C260.149 922.987 265.478 936.694 268.459 945.691C275.071 968.71 273.372 993.998 261.723 1015.04C259.306 1019.12 256.822 1022.85 253.717 1026.43C253.124 1027.15 252.531 1027.88 251.921 1028.62C237.199 1046.02 218.07 1054.84 195.729 1057.42C172.984 1059.14 153.003 1052.87 134.742 1039.43C133.258 1038.44 133.258 1038.44 131.743 1037.43C131.743 1036.77 131.743 1036.11 131.743 1035.43C131.163 1035.18 130.583 1034.94 129.985 1034.68C117.172 1027.52 109.761 1009.08 105.584 995.708C100.898 977.356 102.724 955.884 109.935 938.631C110.297 937.759 110.659 936.888 111.032 935.989C113.796 929.733 117.358 924.67 121.745 919.447C122.279 918.789 122.813 918.131 123.364 917.454C126.771 913.274 130.505 909.774 134.742 906.449C135.414 905.905 136.085 905.361 136.777 904.801C142.122 900.749 147.769 897.866 153.863 895.138C154.615 894.801 155.367 894.463 156.141 894.116C165.851 889.911 174.654 889.079 185.147 889.081Z" fill="#73C5DA"/>
<path d="M2790.02 889.081C2792.27 889.077 2794.52 889.041 2796.77 889.003C2809.12 888.905 2819.75 891.511 2830.79 897.201C2831.46 897.541 2832.13 897.882 2832.82 898.233C2838.67 901.3 2843.65 905.079 2848.6 909.448C2849.68 910.283 2850.76 911.117 2851.84 911.948C2855.33 915.115 2857.91 918.592 2860.59 922.446C2861.1 923.16 2861.61 923.874 2862.13 924.61C2875.68 944.227 2879.41 966.741 2875.71 990.143C2874.51 996.725 2872.74 1002.55 2869.59 1008.43C2869.12 1009.41 2868.65 1010.39 2868.17 1011.4C2861.86 1024.03 2852.6 1035.73 2840.6 1043.43C2837.78 1044.16 2837.78 1044.16 2835.6 1044.43C2835.6 1045.09 2835.6 1045.75 2835.6 1046.43C2814.15 1058.61 2790.32 1059.93 2766.71 1053.94C2760.56 1052.22 2755.07 1049.77 2749.62 1046.43C2749.62 1045.77 2749.62 1045.11 2749.62 1044.43C2748.94 1044.38 2748.26 1044.34 2747.56 1044.29C2743.34 1043.05 2740.74 1040.5 2737.49 1037.61C2736.87 1037.08 2736.25 1036.55 2735.62 1036C2729.72 1030.85 2729.72 1030.85 2727.62 1027.43C2727.62 1026.77 2727.62 1026.11 2727.62 1025.43C2727.01 1025.18 2726.4 1024.93 2725.77 1024.67C2723.25 1023.21 2722.57 1022.12 2721.25 1019.56C2720.83 1018.76 2720.41 1017.96 2719.99 1017.14C2719.54 1016.24 2719.09 1015.35 2718.62 1014.43C2718.1 1013.42 2717.58 1012.42 2717.04 1011.38C2706.86 991.489 2705.7 967.964 2711.62 946.442C2712.57 944.087 2713.57 941.752 2714.62 939.443C2715.28 937.98 2715.28 937.98 2715.95 936.487C2719.37 929.319 2723.43 923.433 2728.62 917.447C2729.07 916.9 2729.51 916.353 2729.97 915.789C2733.41 911.614 2737 908.201 2741.37 905.012C2742 904.546 2742.64 904.08 2743.3 903.6C2757.66 893.513 2772.61 889.078 2790.02 889.081Z" fill="#F5842C"/>
</svg>
